<?xml version="1.0" encoding="utf-8"?>
<svg x="0pt" y="0pt" width="800pt" height="600pt" viewBox="0 0 800 600" xmlns="http://www.w3.org/2000/svg" xmlns:xlink="http://www.w3.org/1999/xlink">
  <g id="1">
    <title>Layer 1</title>
    <defs>
      <title>Smart Rectangle</title>
      <g id="2">
        <defs>
          <path id="3" d="M652.526,523.727 C652.526,523.727,142.492,523.727,142.492,523.727 C142.492,523.727,142.492,127.016,142.492,127.016 C142.492,127.016,652.526,127.016,652.526,127.016 C652.526,127.016,652.526,523.727,652.526,523.727 z"/>
        </defs>
        <use xlink:href="#3" style="fill:#aaaaaa;fill-opacity:1;fill-rule:nonzero;opacity:1;stroke:none;"/>
        <use xlink:href="#3" style="fill:none;opacity:1;stroke:#000000;stroke-linecap:butt;stroke-linejoin:miter;stroke-miterlimit:10;stroke-opacity:1;stroke-width:1;"/>
      </g>
    </defs>
    <use xlink:href="#2"/>
    <defs>
      <title>Smart Rectangle</title>
      <g id="4">
        <defs>
          <path id="5" d="M390.79,307.695 C390.79,312.113,387.208,315.695,382.79,315.695 C382.79,315.695,164.592,315.695,164.592,315.695 C160.173,315.695,156.592,312.113,156.592,307.695 C156.592,307.695,156.592,149.811,156.592,149.811 C156.592,145.393,160.173,141.811,164.592,141.811 C164.592,141.811,382.79,141.811,382.79,141.811 C387.208,141.811,390.79,145.393,390.79,149.811 C390.79,149.811,390.79,307.695,390.79,307.695 z"/>
        </defs>
        <use xlink:href="#5" style="fill:#ffd7b7;fill-opacity:1;fill-rule:nonzero;opacity:1;stroke:none;"/>
        <use xlink:href="#5" style="fill:none;opacity:1;stroke:#000000;stroke-linecap:butt;stroke-linejoin:miter;stroke-miterlimit:10;stroke-opacity:1;stroke-width:1;"/>
      </g>
    </defs>
    <use xlink:href="#4"/>
    <defs>
      <title>Text</title>
      <g id="6">
        <defs>
          <path id="7" d="M243.689,107.25 C243.689,107.25,245.633,107.25,245.633,107.25 C245.633,107.25,245.633,119.886,245.633,119.886 C245.633,119.886,252.898,119.886,252.898,119.886 C252.898,119.886,252.898,121.595,252.898,121.595 C252.898,121.595,243.689,121.595,243.689,121.595 z M255.252,107.25 C255.252,107.25,257.215,107.25,257.215,107.25 C257.215,107.25,257.215,121.595,257.215,121.595 C257.215,121.595,255.252,121.595,255.252,121.595 z M260.369,107.25 C260.369,107.25,262.664,107.25,262.664,107.25 C262.664,107.25,269.91,118.871,269.91,118.871 C269.91,118.871,269.91,107.25,269.91,107.25 C269.91,107.25,271.756,107.25,271.756,107.25 C271.756,107.25,271.756,121.595,271.756,121.595 C271.756,121.595,269.578,121.595,269.578,121.595 C269.578,121.595,262.224,109.984,262.224,109.984 C262.224,109.984,262.224,121.595,262.224,121.595 C262.224,121.595,260.369,121.595,260.369,121.595 z M274.998,107.25 C274.998,107.25,285.457,107.25,285.457,107.25 C285.457,107.25,285.457,109.008,285.457,109.008 C285.457,109.008,276.892,109.008,276.892,109.008 C276.892,109.008,276.892,113.363,276.892,113.363 C276.892,113.363,284.812,113.363,284.812,113.363 C284.812,113.363,284.812,115.023,284.812,115.023 C284.812,115.023,276.892,115.023,276.892,115.023 C276.892,115.023,276.892,119.886,276.892,119.886 C276.892,119.886,285.603,119.886,285.603,119.886 C285.603,119.886,285.603,121.595,285.603,121.595 C285.603,121.595,274.998,121.595,274.998,121.595 z M295.516,115.717 C295.516,115.717,293.338,109.379,293.338,109.379 C293.338,109.379,291.023,115.717,291.023,115.717 z M292.322,107.25 C292.322,107.25,294.519,107.25,294.519,107.25 C294.519,107.25,299.724,121.595,299.724,121.595 C299.724,121.595,297.596,121.595,297.596,121.595 C297.596,121.595,296.141,117.299,296.141,117.299 C296.141,117.299,290.467,117.299,290.467,117.299 C290.467,117.299,288.914,121.595,288.914,121.595 C288.914,121.595,286.922,121.595,286.922,121.595 z M308.162,113.822 C309.073,113.822,309.794,113.64,310.325,113.275 C310.856,112.911,311.121,112.253,311.121,111.302 C311.121,110.28,310.75,109.584,310.008,109.213 C309.611,109.017,309.08,108.92,308.416,108.92 C308.416,108.92,303.67,108.92,303.67,108.92 C303.67,108.92,303.67,113.822,303.67,113.822 z M301.726,107.25 C301.726,107.25,308.367,107.25,308.367,107.25 C309.461,107.25,310.363,107.409,311.072,107.728 C312.42,108.34,313.094,109.47,313.094,111.117 C313.094,111.976,312.916,112.679,312.561,113.226 C312.207,113.773,311.71,114.213,311.072,114.545 C311.632,114.773,312.054,115.072,312.337,115.443 C312.62,115.814,312.778,116.416,312.81,117.25 C312.81,117.25,312.879,119.174,312.879,119.174 C312.898,119.72,312.944,120.127,313.016,120.394 C313.133,120.85,313.341,121.143,313.641,121.273 C313.641,121.273,313.641,121.595,313.641,121.595 C313.641,121.595,311.258,121.595,311.258,121.595 C311.193,121.472,311.141,121.312,311.101,121.117 C311.062,120.922,311.03,120.544,311.004,119.984 C311.004,119.984,310.887,117.592,310.887,117.592 C310.841,116.654,310.493,116.026,309.842,115.707 C309.471,115.531,308.888,115.443,308.094,115.443 C308.094,115.443,303.67,115.443,303.67,115.443 C303.67,115.443,303.67,121.595,303.67,121.595 C303.67,121.595,301.726,121.595,301.726,121.595 z"/>
        </defs>
        <use xlink:href="#7" style="fill:#000000;fill-opacity:1;fill-rule:nonzero;opacity:1;stroke:none;"/>
      </g>
    </defs>
    <use xlink:href="#6"/>
    <defs>
      <title>Text</title>
      <g id="8">
        <defs>
          <path id="9" d="M187.637,149.917 C187.637,149.917,188.997,149.917,188.997,149.917 C188.997,149.917,188.997,158.763,188.997,158.763 C188.997,158.763,194.083,158.763,194.083,158.763 C194.083,158.763,194.083,159.959,194.083,159.959 C194.083,159.959,187.637,159.959,187.637,159.959 z M195.731,149.917 C195.731,149.917,197.105,149.917,197.105,149.917 C197.105,149.917,197.105,159.959,197.105,159.959 C197.105,159.959,195.731,159.959,195.731,159.959 z M199.313,149.917 C199.313,149.917,200.919,149.917,200.919,149.917 C200.919,149.917,205.991,158.052,205.991,158.052 C205.991,158.052,205.991,149.917,205.991,149.917 C205.991,149.917,207.283,149.917,207.283,149.917 C207.283,149.917,207.283,159.959,207.283,159.959 C207.283,159.959,205.759,159.959,205.759,159.959 C205.759,159.959,200.612,151.831,200.612,151.831 C200.612,151.831,200.612,159.959,200.612,159.959 C200.612,159.959,199.313,159.959,199.313,159.959 z M209.553,149.917 C209.553,149.917,216.874,149.917,216.874,149.917 C216.874,149.917,216.874,151.148,216.874,151.148 C216.874,151.148,210.879,151.148,210.879,151.148 C210.879,151.148,210.879,154.197,210.879,154.197 C210.879,154.197,216.423,154.197,216.423,154.197 C216.423,154.197,216.423,155.359,216.423,155.359 C216.423,155.359,210.879,155.359,210.879,155.359 C210.879,155.359,210.879,158.763,210.879,158.763 C210.879,158.763,216.977,158.763,216.977,158.763 C216.977,158.763,216.977,159.959,216.977,159.959 C216.977,159.959,209.553,159.959,209.553,159.959 z M223.915,155.844 C223.915,155.844,222.391,151.408,222.391,151.408 C222.391,151.408,220.771,155.844,220.771,155.844 z M221.68,149.917 C221.68,149.917,223.218,149.917,223.218,149.917 C223.218,149.917,226.862,159.959,226.862,159.959 C226.862,159.959,225.371,159.959,225.371,159.959 C225.371,159.959,224.353,156.952,224.353,156.952 C224.353,156.952,220.381,156.952,220.381,156.952 C220.381,156.952,219.294,159.959,219.294,159.959 C219.294,159.959,217.9,159.959,217.9,159.959 z M232.768,154.518 C233.406,154.518,233.911,154.39,234.282,154.135 C234.653,153.88,234.839,153.42,234.839,152.754 C234.839,152.039,234.579,151.551,234.06,151.291 C233.782,151.155,233.41,151.086,232.946,151.086 C232.946,151.086,229.623,151.086,229.623,151.086 C229.623,151.086,229.623,154.518,229.623,154.518 z M228.263,149.917 C228.263,149.917,232.911,149.917,232.911,149.917 C233.677,149.917,234.308,150.029,234.805,150.252 C235.748,150.681,236.22,151.471,236.22,152.624 C236.22,153.226,236.096,153.718,235.847,154.101 C235.599,154.484,235.252,154.791,234.805,155.024 C235.197,155.183,235.492,155.393,235.69,155.653 C235.888,155.913,235.999,156.334,236.022,156.917 C236.022,156.917,236.07,158.264,236.07,158.264 C236.083,158.647,236.115,158.932,236.165,159.119 C236.247,159.438,236.393,159.643,236.603,159.734 C236.603,159.734,236.603,159.959,236.603,159.959 C236.603,159.959,234.935,159.959,234.935,159.959 C234.889,159.873,234.853,159.761,234.825,159.624 C234.798,159.488,234.775,159.223,234.757,158.831 C234.757,158.831,234.675,157.157,234.675,157.157 C234.643,156.5,234.399,156.061,233.944,155.837 C233.684,155.714,233.276,155.653,232.72,155.653 C232.72,155.653,229.623,155.653,229.623,155.653 C229.623,155.653,229.623,159.959,229.623,159.959 C229.623,159.959,228.263,159.959,228.263,159.959 z M243.575,149.917 C243.575,149.917,243.575,156.124,243.575,156.124 C243.575,156.854,243.712,157.46,243.986,157.943 C244.391,158.672,245.075,159.037,246.036,159.037 C247.189,159.037,247.973,158.642,248.388,157.854 C248.611,157.426,248.723,156.849,248.723,156.124 C248.723,156.124,248.723,149.917,248.723,149.917 C248.723,149.917,250.104,149.917,250.104,149.917 C250.104,149.917,250.104,155.557,250.104,155.557 C250.104,156.792,249.937,157.742,249.605,158.408 C248.994,159.62,247.841,160.226,246.146,160.226 C244.45,160.226,243.3,159.62,242.694,158.408 C242.361,157.742,242.195,156.792,242.195,155.557 C242.195,155.557,242.195,149.917,242.195,149.917 z M252.209,149.917 C252.209,149.917,253.816,149.917,253.816,149.917 C253.816,149.917,258.888,158.052,258.888,158.052 C258.888,158.052,258.888,149.917,258.888,149.917 C258.888,149.917,260.18,149.917,260.18,149.917 C260.18,149.917,260.18,159.959,260.18,159.959 C260.18,159.959,258.656,159.959,258.656,159.959 C258.656,159.959,253.508,151.831,253.508,151.831 C253.508,151.831,253.508,159.959,253.508,159.959 C253.508,159.959,252.209,159.959,252.209,159.959 z M263.208,156.719 C263.24,157.289,263.375,157.751,263.612,158.107 C264.063,158.772,264.858,159.105,265.997,159.105 C266.508,159.105,266.973,159.032,267.392,158.886 C268.203,158.604,268.609,158.098,268.609,157.369 C268.609,156.822,268.438,156.432,268.096,156.2 C267.75,155.972,267.207,155.774,266.469,155.605 C266.469,155.605,265.109,155.297,265.109,155.297 C264.22,155.097,263.591,154.876,263.222,154.634 C262.584,154.215,262.265,153.588,262.265,152.754 C262.265,151.852,262.577,151.111,263.201,150.533 C263.826,149.954,264.71,149.664,265.854,149.664 C266.906,149.664,267.801,149.919,268.537,150.427 C269.273,150.935,269.641,151.747,269.641,152.864 C269.641,152.864,268.363,152.864,268.363,152.864 C268.294,152.326,268.148,151.914,267.925,151.626 C267.51,151.102,266.806,150.84,265.813,150.84 C265.011,150.84,264.434,151.009,264.083,151.346 C263.732,151.683,263.557,152.075,263.557,152.522 C263.557,153.014,263.762,153.374,264.172,153.602 C264.441,153.748,265.049,153.93,265.997,154.149 C265.997,154.149,267.406,154.47,267.406,154.47 C268.085,154.625,268.609,154.837,268.978,155.106 C269.616,155.575,269.935,156.257,269.935,157.15 C269.935,158.262,269.53,159.057,268.721,159.536 C267.913,160.014,266.973,160.253,265.902,160.253 C264.653,160.253,263.675,159.934,262.969,159.296 C262.263,158.663,261.916,157.804,261.93,156.719 z M278.965,149.917 C278.965,149.917,278.965,151.114,278.965,151.114 C278.965,151.114,275.581,151.114,275.581,151.114 C275.581,151.114,275.581,159.959,275.581,159.959 C275.581,159.959,274.2,159.959,274.2,159.959 C274.2,159.959,274.2,151.114,274.2,151.114 C274.2,151.114,270.817,151.114,270.817,151.114 C270.817,151.114,270.817,149.917,270.817,149.917 z M284.878,154.518 C285.516,154.518,286.021,154.39,286.392,154.135 C286.764,153.88,286.949,153.42,286.949,152.754 C286.949,152.039,286.69,151.551,286.17,151.291 C285.892,151.155,285.521,151.086,285.056,151.086 C285.056,151.086,281.734,151.086,281.734,151.086 C281.734,151.086,281.734,154.518,281.734,154.518 z M280.373,149.917 C280.373,149.917,285.022,149.917,285.022,149.917 C285.787,149.917,286.419,150.029,286.915,150.252 C287.859,150.681,288.33,151.471,288.33,152.624 C288.33,153.226,288.206,153.718,287.958,154.101 C287.709,154.484,287.362,154.791,286.915,155.024 C287.307,155.183,287.602,155.393,287.801,155.653 C287.999,155.913,288.109,156.334,288.132,156.917 C288.132,156.917,288.18,158.264,288.18,158.264 C288.194,158.647,288.225,158.932,288.276,159.119 C288.358,159.438,288.504,159.643,288.713,159.734 C288.713,159.734,288.713,159.959,288.713,159.959 C288.713,159.959,287.045,159.959,287.045,159.959 C287,159.873,286.963,159.761,286.936,159.624 C286.908,159.488,286.886,159.223,286.867,158.831 C286.867,158.831,286.785,157.157,286.785,157.157 C286.754,156.5,286.51,156.061,286.054,155.837 C285.794,155.714,285.386,155.653,284.83,155.653 C284.83,155.653,281.734,155.653,281.734,155.653 C281.734,155.653,281.734,159.959,281.734,159.959 C281.734,159.959,280.373,159.959,280.373,159.959 z M291.796,149.917 C291.796,149.917,291.796,156.124,291.796,156.124 C291.796,156.854,291.933,157.46,292.206,157.943 C292.612,158.672,293.296,159.037,294.257,159.037 C295.41,159.037,296.194,158.642,296.609,157.854 C296.832,157.426,296.944,156.849,296.944,156.124 C296.944,156.124,296.944,149.917,296.944,149.917 C296.944,149.917,298.324,149.917,298.324,149.917 C298.324,149.917,298.324,155.557,298.324,155.557 C298.324,156.792,298.158,157.742,297.825,158.408 C297.215,159.62,296.062,160.226,294.366,160.226 C292.671,160.226,291.52,159.62,290.914,158.408 C290.582,157.742,290.415,156.792,290.415,155.557 C290.415,155.557,290.415,149.917,290.415,149.917 z M304.661,149.644 C305.933,149.644,306.92,149.979,307.621,150.649 C308.323,151.319,308.713,152.08,308.79,152.932 C308.79,152.932,307.464,152.932,307.464,152.932 C307.314,152.285,307.014,151.772,306.565,151.394 C306.116,151.016,305.486,150.827,304.675,150.827 C303.686,150.827,302.887,151.174,302.279,151.869 C301.671,152.564,301.366,153.629,301.366,155.065 C301.366,156.241,301.641,157.194,302.19,157.926 C302.739,158.657,303.559,159.023,304.648,159.023 C305.65,159.023,306.414,158.638,306.938,157.868 C307.216,157.462,307.423,156.929,307.56,156.268 C307.56,156.268,308.886,156.268,308.886,156.268 C308.767,157.325,308.376,158.212,307.71,158.927 C306.913,159.789,305.837,160.219,304.484,160.219 C303.317,160.219,302.337,159.866,301.544,159.16 C300.501,158.225,299.979,156.783,299.979,154.832 C299.979,153.351,300.371,152.137,301.155,151.189 C302.002,150.159,303.171,149.644,304.661,149.644 z M317.848,149.917 C317.848,149.917,317.848,151.114,317.848,151.114 C317.848,151.114,314.464,151.114,314.464,151.114 C314.464,151.114,314.464,159.959,314.464,159.959 C314.464,159.959,313.083,159.959,313.083,159.959 C313.083,159.959,313.083,151.114,313.083,151.114 C313.083,151.114,309.699,151.114,309.699,151.114 C309.699,151.114,309.699,149.917,309.699,149.917 z M320.569,149.917 C320.569,149.917,320.569,156.124,320.569,156.124 C320.569,156.854,320.705,157.46,320.979,157.943 C321.384,158.672,322.068,159.037,323.03,159.037 C324.183,159.037,324.966,158.642,325.381,157.854 C325.604,157.426,325.716,156.849,325.716,156.124 C325.716,156.124,325.716,149.917,325.716,149.917 C325.716,149.917,327.097,149.917,327.097,149.917 C327.097,149.917,327.097,155.557,327.097,155.557 C327.097,156.792,326.931,157.742,326.598,158.408 C325.987,159.62,324.834,160.226,323.139,160.226 C321.444,160.226,320.293,159.62,319.687,158.408 C319.354,157.742,319.188,156.792,319.188,155.557 C319.188,155.557,319.188,149.917,319.188,149.917 z M333.871,154.518 C334.509,154.518,335.014,154.39,335.385,154.135 C335.757,153.88,335.943,153.42,335.943,152.754 C335.943,152.039,335.683,151.551,335.163,151.291 C334.885,151.155,334.514,151.086,334.049,151.086 C334.049,151.086,330.727,151.086,330.727,151.086 C330.727,151.086,330.727,154.518,330.727,154.518 z M329.366,149.917 C329.366,149.917,334.015,149.917,334.015,149.917 C334.781,149.917,335.412,150.029,335.908,150.252 C336.852,150.681,337.323,151.471,337.323,152.624 C337.323,153.226,337.199,153.718,336.951,154.101 C336.703,154.484,336.355,154.791,335.908,155.024 C336.3,155.183,336.595,155.393,336.794,155.653 C336.992,155.913,337.102,156.334,337.125,156.917 C337.125,156.917,337.173,158.264,337.173,158.264 C337.187,158.647,337.219,158.932,337.269,159.119 C337.351,159.438,337.497,159.643,337.706,159.734 C337.706,159.734,337.706,159.959,337.706,159.959 C337.706,159.959,336.038,159.959,336.038,159.959 C335.993,159.873,335.956,159.761,335.929,159.624 C335.902,159.488,335.879,159.223,335.861,158.831 C335.861,158.831,335.779,157.157,335.779,157.157 C335.747,156.5,335.503,156.061,335.047,155.837 C334.787,155.714,334.379,155.653,333.823,155.653 C333.823,155.653,330.727,155.653,330.727,155.653 C330.727,155.653,330.727,159.959,330.727,159.959 C330.727,159.959,329.366,159.959,329.366,159.959 z M339.443,149.917 C339.443,149.917,346.764,149.917,346.764,149.917 C346.764,149.917,346.764,151.148,346.764,151.148 C346.764,151.148,340.769,151.148,340.769,151.148 C340.769,151.148,340.769,154.197,340.769,154.197 C340.769,154.197,346.313,154.197,346.313,154.197 C346.313,154.197,346.313,155.359,346.313,155.359 C346.313,155.359,340.769,155.359,340.769,155.359 C340.769,155.359,340.769,158.763,340.769,158.763 C340.769,158.763,346.866,158.763,346.866,158.763 C346.866,158.763,346.866,159.959,346.866,159.959 C346.866,159.959,339.443,159.959,339.443,159.959 z M352.506,158.797 C352.966,158.797,353.345,158.749,353.641,158.654 C354.17,158.476,354.602,158.134,354.94,157.628 C355.209,157.223,355.402,156.703,355.521,156.07 C355.589,155.692,355.623,155.341,355.623,155.017 C355.623,153.773,355.376,152.807,354.882,152.119 C354.387,151.43,353.591,151.086,352.492,151.086 C352.492,151.086,350.079,151.086,350.079,151.086 C350.079,151.086,350.079,158.797,350.079,158.797 z M348.712,149.917 C348.712,149.917,352.78,149.917,352.78,149.917 C354.16,149.917,355.231,150.407,355.992,151.387 C356.671,152.271,357.011,153.404,357.011,154.785 C357.011,155.851,356.81,156.815,356.409,157.676 C355.703,159.198,354.489,159.959,352.766,159.959 C352.766,159.959,348.712,159.959,348.712,159.959 z"/>
        </defs>
        <use xlink:href="#9" style="fill:#000000;fill-opacity:1;fill-rule:nonzero;opacity:1;stroke:none;"/>
      </g>
    </defs>
    <use xlink:href="#8"/>
    <defs>
      <title>Text</title>
      <g id="10">
        <defs>
          <path id="11" d="M76.758,10.4078 C76.758,10.4078,78.507,10.4078,78.507,10.4078 C78.507,10.4078,78.507,21.7808,78.507,21.7808 C78.507,21.7808,85.0461,21.7808,85.0461,21.7808 C85.0461,21.7808,85.0461,23.3189,85.0461,23.3189 C85.0461,23.3189,76.758,23.3189,76.758,23.3189 z M90.4777,13.6949 C91.1457,13.6949,91.7932,13.8516,92.4201,14.1651 C93.0471,14.4786,93.5246,14.8843,93.8527,15.3824 C94.1691,15.857,94.3801,16.4107,94.4855,17.0435 C94.5793,17.4771,94.6262,18.1685,94.6262,19.1177 C94.6262,19.1177,87.7267,19.1177,87.7267,19.1177 C87.756,20.0728,87.9816,20.8389,88.4035,21.4161 C88.8254,21.9932,89.4787,22.2818,90.3635,22.2818 C91.1896,22.2818,91.8488,22.0093,92.341,21.4644 C92.6223,21.148,92.8215,20.7818,92.9387,20.3658 C92.9387,20.3658,94.4943,20.3658,94.4943,20.3658 C94.4533,20.7115,94.3171,21.0967,94.0856,21.5215 C93.8542,21.9464,93.5949,22.2935,93.3078,22.563 C92.8273,23.0318,92.2326,23.3482,91.5236,23.5123 C91.1428,23.606,90.7121,23.6529,90.2316,23.6529 C89.0598,23.6529,88.0666,23.2266,87.2521,22.3741 C86.4377,21.5215,86.0305,20.3277,86.0305,18.7925 C86.0305,17.2808,86.4406,16.0533,87.2609,15.1099 C88.0812,14.1666,89.1535,13.6949,90.4777,13.6949 z M93.0002,17.8609 C92.9357,17.1754,92.7863,16.6275,92.5519,16.2173 C92.1183,15.4556,91.3947,15.0748,90.381,15.0748 C89.6545,15.0748,89.0451,15.337,88.5529,15.8614 C88.0607,16.3858,87.8,17.0523,87.7707,17.8609 z M99.8908,13.7388 C100.629,13.7388,101.274,13.9205,101.824,14.2838 C102.123,14.4888,102.428,14.7877,102.738,15.1802 C102.738,15.1802,102.738,13.9937,102.738,13.9937 C102.738,13.9937,104.197,13.9937,104.197,13.9937 C104.197,13.9937,104.197,22.5543,104.197,22.5543 C104.197,23.7496,104.022,24.6929,103.67,25.3843 C103.014,26.6617,101.775,27.3004,99.9523,27.3004 C98.9387,27.3004,98.0861,27.0733,97.3947,26.6192 C96.7033,26.1651,96.3166,25.4547,96.2346,24.4879 C96.2346,24.4879,97.843,24.4879,97.843,24.4879 C97.9191,24.9097,98.0715,25.2349,98.3,25.4634 C98.6574,25.815,99.2199,25.9908,99.9875,25.9908 C101.2,25.9908,101.994,25.563,102.369,24.7076 C102.592,24.2037,102.695,23.3043,102.677,22.0093 C102.361,22.4898,101.98,22.8472,101.534,23.0816 C101.089,23.316,100.5,23.4332,99.7678,23.4332 C98.7482,23.4332,97.8561,23.0714,97.0915,22.3477 C96.3268,21.6241,95.9445,20.4273,95.9445,18.7574 C95.9445,17.1812,96.3298,15.9507,97.1003,15.066 C97.8708,14.1812,98.801,13.7388,99.8908,13.7388 z M102.738,18.5728 C102.738,17.4068,102.498,16.5425,102.018,15.98 C101.537,15.4175,100.925,15.1363,100.181,15.1363 C99.0676,15.1363,98.3058,15.6578,97.8957,16.7007 C97.6789,17.2574,97.5705,17.9869,97.5705,18.8892 C97.5705,19.9498,97.7858,20.7569,98.2165,21.3106 C98.6472,21.8643,99.2258,22.1412,99.9523,22.1412 C101.089,22.1412,101.889,21.6285,102.352,20.6031 C102.61,20.023,102.738,19.3463,102.738,18.5728 z M110.499,13.6949 C111.167,13.6949,111.815,13.8516,112.442,14.1651 C113.069,14.4786,113.546,14.8843,113.874,15.3824 C114.191,15.857,114.402,16.4107,114.507,17.0435 C114.601,17.4771,114.648,18.1685,114.648,19.1177 C114.648,19.1177,107.748,19.1177,107.748,19.1177 C107.778,20.0728,108.003,20.8389,108.425,21.4161 C108.847,21.9932,109.5,22.2818,110.385,22.2818 C111.211,22.2818,111.87,22.0093,112.362,21.4644 C112.644,21.148,112.843,20.7818,112.96,20.3658 C112.96,20.3658,114.516,20.3658,114.516,20.3658 C114.475,20.7115,114.339,21.0967,114.107,21.5215 C113.876,21.9464,113.616,22.2935,113.329,22.563 C112.849,23.0318,112.254,23.3482,111.545,23.5123 C111.164,23.606,110.734,23.6529,110.253,23.6529 C109.081,23.6529,108.088,23.2266,107.274,22.3741 C106.459,21.5215,106.052,20.3277,106.052,18.7925 C106.052,17.2808,106.462,16.0533,107.282,15.1099 C108.103,14.1666,109.175,13.6949,110.499,13.6949 z M113.022,17.8609 C112.957,17.1754,112.808,16.6275,112.573,16.2173 C112.14,15.4556,111.416,15.0748,110.403,15.0748 C109.676,15.0748,109.067,15.337,108.574,15.8614 C108.082,16.3858,107.821,17.0523,107.792,17.8609 z M116.59,13.9058 C116.59,13.9058,118.093,13.9058,118.093,13.9058 C118.093,13.9058,118.093,15.2418,118.093,15.2418 C118.538,14.691,119.01,14.2955,119.508,14.0552 C120.006,13.815,120.56,13.6949,121.169,13.6949 C122.505,13.6949,123.407,14.1607,123.876,15.0923 C124.134,15.6021,124.263,16.3316,124.263,17.2808 C124.263,17.2808,124.263,23.3189,124.263,23.3189 C124.263,23.3189,122.654,23.3189,122.654,23.3189 C122.654,23.3189,122.654,17.3863,122.654,17.3863 C122.654,16.8121,122.57,16.3492,122.4,15.9976 C122.118,15.4117,121.609,15.1187,120.87,15.1187 C120.495,15.1187,120.188,15.1568,119.947,15.233 C119.514,15.3619,119.133,15.6197,118.805,16.0064 C118.541,16.317,118.37,16.6378,118.291,16.9688 C118.212,17.2999,118.172,17.773,118.172,18.3882 C118.172,18.3882,118.172,23.3189,118.172,23.3189 C118.172,23.3189,116.59,23.3189,116.59,23.3189 z M127.603,18.7222 C127.603,19.73,127.817,20.5738,128.244,21.2535 C128.672,21.9332,129.358,22.273,130.301,22.273 C131.033,22.273,131.635,21.9581,132.107,21.3282 C132.579,20.6983,132.815,19.7945,132.815,18.6168 C132.815,17.4273,132.571,16.5469,132.085,15.9756 C131.599,15.4044,130.998,15.1187,130.283,15.1187 C129.487,15.1187,128.841,15.4234,128.345,16.0328 C127.85,16.6422,127.603,17.5386,127.603,18.7222 z M129.985,13.7388 C130.705,13.7388,131.309,13.8912,131.795,14.1959 C132.076,14.3716,132.396,14.6793,132.753,15.1187 C132.753,15.1187,132.753,10.3638,132.753,10.3638 C132.753,10.3638,134.274,10.3638,134.274,10.3638 C134.274,10.3638,134.274,23.3189,134.274,23.3189 C134.274,23.3189,132.85,23.3189,132.85,23.3189 C132.85,23.3189,132.85,22.0093,132.85,22.0093 C132.481,22.5894,132.044,23.0084,131.54,23.2662 C131.036,23.524,130.459,23.6529,129.809,23.6529 C128.76,23.6529,127.852,23.212,127.084,22.3301 C126.317,21.4483,125.933,20.275,125.933,18.8101 C125.933,17.439,126.283,16.251,126.983,15.2462 C127.683,14.2413,128.684,13.7388,129.985,13.7388 z"/>
        </defs>
        <use xlink:href="#11" style="fill:#000000;fill-opacity:1;fill-rule:nonzero;opacity:1;stroke:none;"/>
      </g>
    </defs>
    <use xlink:href="#10"/>
    <defs>
      <title>Smart Rectangle</title>
      <g id="12">
        <defs>
          <path id="13" d="M641.305,307.695 C641.305,312.113,637.723,315.695,633.305,315.695 C633.305,315.695,418.223,315.695,418.223,315.695 C413.804,315.695,410.223,312.113,410.223,307.695 C410.223,307.695,410.223,149.811,410.223,149.811 C410.223,145.393,413.804,141.811,418.223,141.811 C418.223,141.811,633.305,141.811,633.305,141.811 C637.723,141.811,641.305,145.393,641.305,149.811 C641.305,149.811,641.305,307.695,641.305,307.695 z"/>
        </defs>
        <use xlink:href="#13" style="fill:#ffd7b7;fill-opacity:1;fill-rule:nonzero;opacity:1;stroke:none;"/>
        <use xlink:href="#13" style="fill:none;opacity:1;stroke:#000000;stroke-linecap:butt;stroke-linejoin:miter;stroke-miterlimit:10;stroke-opacity:1;stroke-width:1;"/>
      </g>
    </defs>
    <use xlink:href="#12"/>
    <defs>
      <title>Smart Rectangle</title>
      <g id="14">
        <defs>
          <path id="15" d="M390.79,498.741 C390.79,503.16,387.208,506.741,382.79,506.741 C382.79,506.741,164.592,506.741,164.592,506.741 C160.173,506.741,156.592,503.16,156.592,498.741 C156.592,498.741,156.592,342.012,156.592,342.012 C156.592,337.594,160.173,334.012,164.592,334.012 C164.592,334.012,382.79,334.012,382.79,334.012 C387.208,334.012,390.79,337.594,390.79,342.012 C390.79,342.012,390.79,498.741,390.79,498.741 z"/>
        </defs>
        <use xlink:href="#15" style="fill:#ffd7b7;fill-opacity:1;fill-rule:nonzero;opacity:1;stroke:none;"/>
        <use xlink:href="#15" style="fill:none;opacity:1;stroke:#000000;stroke-linecap:butt;stroke-linejoin:miter;stroke-miterlimit:10;stroke-opacity:1;stroke-width:1;"/>
      </g>
    </defs>
    <use xlink:href="#14"/>
    <defs>
      <title>Smart Rectangle</title>
      <g id="16">
        <defs>
          <path id="17" d="M639.305,496.741 C639.305,501.16,635.723,504.741,631.305,504.741 C631.305,504.741,418.223,504.741,418.223,504.741 C413.804,504.741,410.223,501.16,410.223,496.741 C410.223,496.741,410.223,342.012,410.223,342.012 C410.223,337.594,413.804,334.012,418.223,334.012 C418.223,334.012,631.305,334.012,631.305,334.012 C635.723,334.012,639.305,337.594,639.305,342.012 C639.305,342.012,639.305,496.741,639.305,496.741 z"/>
        </defs>
        <use xlink:href="#17" style="fill:#ffd7b7;fill-opacity:1;fill-rule:nonzero;opacity:1;stroke:none;"/>
        <use xlink:href="#17" style="fill:none;opacity:1;stroke:#000000;stroke-linecap:butt;stroke-linejoin:miter;stroke-miterlimit:10;stroke-opacity:1;stroke-width:1;"/>
      </g>
    </defs>
    <use xlink:href="#16"/>
    <defs>
      <title>Text</title>
      <g id="18">
        <defs>
          <path id="19" d="M433.984,149.917 C433.984,149.917,435.932,149.917,435.932,149.917 C435.932,149.917,438.817,158.408,438.817,158.408 C438.817,158.408,441.681,149.917,441.681,149.917 C441.681,149.917,443.609,149.917,443.609,149.917 C443.609,149.917,443.609,159.959,443.609,159.959 C443.609,159.959,442.317,159.959,442.317,159.959 C442.317,159.959,442.317,154.033,442.317,154.033 C442.317,153.828,442.322,153.488,442.331,153.014 C442.34,152.54,442.345,152.032,442.345,151.49 C442.345,151.49,439.48,159.959,439.48,159.959 C439.48,159.959,438.134,159.959,438.134,159.959 C438.134,159.959,435.249,151.49,435.249,151.49 C435.249,151.49,435.249,151.797,435.249,151.797 C435.249,152.043,435.255,152.418,435.266,152.922 C435.277,153.425,435.283,153.796,435.283,154.033 C435.283,154.033,435.283,159.959,435.283,159.959 C435.283,159.959,433.984,159.959,433.984,159.959 z M450.014,149.644 C451.787,149.644,453.1,150.214,453.952,151.353 C454.617,152.242,454.95,153.379,454.95,154.764 C454.95,156.263,454.569,157.51,453.808,158.503 C452.915,159.67,451.641,160.253,449.987,160.253 C448.442,160.253,447.228,159.743,446.344,158.722 C445.555,157.738,445.161,156.494,445.161,154.99 C445.161,153.632,445.498,152.469,446.173,151.503 C447.039,150.264,448.319,149.644,450.014,149.644 z M450.151,159.037 C451.35,159.037,452.217,158.607,452.752,157.748 C453.288,156.889,453.555,155.901,453.555,154.785 C453.555,153.604,453.247,152.654,452.629,151.934 C452.012,151.214,451.167,150.854,450.096,150.854 C449.057,150.854,448.21,151.211,447.554,151.924 C446.897,152.637,446.569,153.689,446.569,155.079 C446.569,156.191,446.851,157.128,447.413,157.892 C447.976,158.655,448.889,159.037,450.151,159.037 z M460.426,158.797 C460.886,158.797,461.264,158.749,461.56,158.654 C462.089,158.476,462.522,158.134,462.859,157.628 C463.128,157.223,463.322,156.703,463.44,156.07 C463.509,155.692,463.543,155.341,463.543,155.017 C463.543,153.773,463.296,152.807,462.801,152.119 C462.307,151.43,461.51,151.086,460.412,151.086 C460.412,151.086,457.999,151.086,457.999,151.086 C457.999,151.086,457.999,158.797,457.999,158.797 z M456.632,149.917 C456.632,149.917,460.699,149.917,460.699,149.917 C462.08,149.917,463.151,150.407,463.912,151.387 C464.591,152.271,464.93,153.404,464.93,154.785 C464.93,155.851,464.73,156.815,464.329,157.676 C463.623,159.198,462.408,159.959,460.685,159.959 C460.685,159.959,456.632,159.959,456.632,159.959 z M468.157,149.917 C468.157,149.917,468.157,156.124,468.157,156.124 C468.157,156.854,468.294,157.46,468.567,157.943 C468.973,158.672,469.656,159.037,470.618,159.037 C471.771,159.037,472.555,158.642,472.97,157.854 C473.193,157.426,473.305,156.849,473.305,156.124 C473.305,156.124,473.305,149.917,473.305,149.917 C473.305,149.917,474.685,149.917,474.685,149.917 C474.685,149.917,474.685,155.557,474.685,155.557 C474.685,156.792,474.519,157.742,474.186,158.408 C473.576,159.62,472.423,160.226,470.727,160.226 C469.032,160.226,467.881,159.62,467.275,158.408 C466.943,157.742,466.776,156.792,466.776,155.557 C466.776,155.557,466.776,149.917,466.776,149.917 z M476.791,149.917 C476.791,149.917,478.151,149.917,478.151,149.917 C478.151,149.917,478.151,158.763,478.151,158.763 C478.151,158.763,483.237,158.763,483.237,158.763 C483.237,158.763,483.237,159.959,483.237,159.959 C483.237,159.959,476.791,159.959,476.791,159.959 z M489.731,155.844 C489.731,155.844,488.207,151.408,488.207,151.408 C488.207,151.408,486.587,155.844,486.587,155.844 z M487.496,149.917 C487.496,149.917,489.034,149.917,489.034,149.917 C489.034,149.917,492.678,159.959,492.678,159.959 C492.678,159.959,491.187,159.959,491.187,159.959 C491.187,159.959,490.169,156.952,490.169,156.952 C490.169,156.952,486.197,156.952,486.197,156.952 C486.197,156.952,485.11,159.959,485.11,159.959 C485.11,159.959,483.716,159.959,483.716,159.959 z M498.584,154.518 C499.222,154.518,499.727,154.39,500.098,154.135 C500.469,153.88,500.655,153.42,500.655,152.754 C500.655,152.039,500.395,151.551,499.876,151.291 C499.598,151.155,499.226,151.086,498.762,151.086 C498.762,151.086,495.439,151.086,495.439,151.086 C495.439,151.086,495.439,154.518,495.439,154.518 z M494.079,149.917 C494.079,149.917,498.727,149.917,498.727,149.917 C499.493,149.917,500.124,150.029,500.621,150.252 C501.564,150.681,502.036,151.471,502.036,152.624 C502.036,153.226,501.912,153.718,501.663,154.101 C501.415,154.484,501.068,154.791,500.621,155.024 C501.013,155.183,501.308,155.393,501.506,155.653 C501.704,155.913,501.815,156.334,501.838,156.917 C501.838,156.917,501.886,158.264,501.886,158.264 C501.899,158.647,501.931,158.932,501.981,159.119 C502.063,159.438,502.209,159.643,502.419,159.734 C502.419,159.734,502.419,159.959,502.419,159.959 C502.419,159.959,500.751,159.959,500.751,159.959 C500.705,159.873,500.669,159.761,500.641,159.624 C500.614,159.488,500.591,159.223,500.573,158.831 C500.573,158.831,500.491,157.157,500.491,157.157 C500.459,156.5,500.215,156.061,499.76,155.837 C499.5,155.714,499.092,155.653,498.536,155.653 C498.536,155.653,495.439,155.653,495.439,155.653 C495.439,155.653,495.439,159.959,495.439,159.959 C495.439,159.959,494.079,159.959,494.079,159.959 z M509.391,149.917 C509.391,149.917,509.391,156.124,509.391,156.124 C509.391,156.854,509.528,157.46,509.802,157.943 C510.207,158.672,510.891,159.037,511.852,159.037 C513.005,159.037,513.789,158.642,514.204,157.854 C514.427,157.426,514.539,156.849,514.539,156.124 C514.539,156.124,514.539,149.917,514.539,149.917 C514.539,149.917,515.92,149.917,515.92,149.917 C515.92,149.917,515.92,155.557,515.92,155.557 C515.92,156.792,515.753,157.742,515.421,158.408 C514.81,159.62,513.657,160.226,511.962,160.226 C510.266,160.226,509.116,159.62,508.51,158.408 C508.177,157.742,508.011,156.792,508.011,155.557 C508.011,155.557,508.011,149.917,508.011,149.917 z M518.025,149.917 C518.025,149.917,519.632,149.917,519.632,149.917 C519.632,149.917,524.704,158.052,524.704,158.052 C524.704,158.052,524.704,149.917,524.704,149.917 C524.704,149.917,525.996,149.917,525.996,149.917 C525.996,149.917,525.996,159.959,525.996,159.959 C525.996,159.959,524.471,159.959,524.471,159.959 C524.471,159.959,519.324,151.831,519.324,151.831 C519.324,151.831,519.324,159.959,519.324,159.959 C519.324,159.959,518.025,159.959,518.025,159.959 z M529.024,156.719 C529.056,157.289,529.191,157.751,529.428,158.107 C529.879,158.772,530.674,159.105,531.813,159.105 C532.324,159.105,532.789,159.032,533.208,158.886 C534.019,158.604,534.425,158.098,534.425,157.369 C534.425,156.822,534.254,156.432,533.912,156.2 C533.566,155.972,533.023,155.774,532.285,155.605 C532.285,155.605,530.925,155.297,530.925,155.297 C530.036,155.097,529.407,154.876,529.038,154.634 C528.4,154.215,528.081,153.588,528.081,152.754 C528.081,151.852,528.393,151.111,529.017,150.533 C529.642,149.954,530.526,149.664,531.67,149.664 C532.722,149.664,533.617,149.919,534.353,150.427 C535.089,150.935,535.457,151.747,535.457,152.864 C535.457,152.864,534.179,152.864,534.179,152.864 C534.11,152.326,533.964,151.914,533.741,151.626 C533.326,151.102,532.622,150.84,531.629,150.84 C530.827,150.84,530.25,151.009,529.899,151.346 C529.548,151.683,529.373,152.075,529.373,152.522 C529.373,153.014,529.578,153.374,529.988,153.602 C530.257,153.748,530.865,153.93,531.813,154.149 C531.813,154.149,533.221,154.47,533.221,154.47 C533.901,154.625,534.425,154.837,534.794,155.106 C535.432,155.575,535.751,156.257,535.751,157.15 C535.751,158.262,535.346,159.057,534.537,159.536 C533.729,160.014,532.789,160.253,531.718,160.253 C530.469,160.253,529.491,159.934,528.785,159.296 C528.079,158.663,527.732,157.804,527.746,156.719 z M544.781,149.917 C544.781,149.917,544.781,151.114,544.781,151.114 C544.781,151.114,541.397,151.114,541.397,151.114 C541.397,151.114,541.397,159.959,541.397,159.959 C541.397,159.959,540.016,159.959,540.016,159.959 C540.016,159.959,540.016,151.114,540.016,151.114 C540.016,151.114,536.633,151.114,536.633,151.114 C536.633,151.114,536.633,149.917,536.633,149.917 z M550.694,154.518 C551.332,154.518,551.837,154.39,552.208,154.135 C552.58,153.88,552.765,153.42,552.765,152.754 C552.765,152.039,552.506,151.551,551.986,151.291 C551.708,151.155,551.337,151.086,550.872,151.086 C550.872,151.086,547.55,151.086,547.55,151.086 C547.55,151.086,547.55,154.518,547.55,154.518 z M546.189,149.917 C546.189,149.917,550.838,149.917,550.838,149.917 C551.603,149.917,552.234,150.029,552.731,150.252 C553.675,150.681,554.146,151.471,554.146,152.624 C554.146,153.226,554.022,153.718,553.774,154.101 C553.525,154.484,553.178,154.791,552.731,155.024 C553.123,155.183,553.418,155.393,553.617,155.653 C553.815,155.913,553.925,156.334,553.948,156.917 C553.948,156.917,553.996,158.264,553.996,158.264 C554.01,158.647,554.042,158.932,554.092,159.119 C554.174,159.438,554.319,159.643,554.529,159.734 C554.529,159.734,554.529,159.959,554.529,159.959 C554.529,159.959,552.861,159.959,552.861,159.959 C552.816,159.873,552.779,159.761,552.752,159.624 C552.724,159.488,552.702,159.223,552.683,158.831 C552.683,158.831,552.601,157.157,552.601,157.157 C552.569,156.5,552.326,156.061,551.87,155.837 C551.61,155.714,551.202,155.653,550.646,155.653 C550.646,155.653,547.55,155.653,547.55,155.653 C547.55,155.653,547.55,159.959,547.55,159.959 C547.55,159.959,546.189,159.959,546.189,159.959 z M557.612,149.917 C557.612,149.917,557.612,156.124,557.612,156.124 C557.612,156.854,557.749,157.46,558.022,157.943 C558.428,158.672,559.111,159.037,560.073,159.037 C561.226,159.037,562.01,158.642,562.425,157.854 C562.648,157.426,562.76,156.849,562.76,156.124 C562.76,156.124,562.76,149.917,562.76,149.917 C562.76,149.917,564.14,149.917,564.14,149.917 C564.14,149.917,564.14,155.557,564.14,155.557 C564.14,156.792,563.974,157.742,563.641,158.408 C563.031,159.62,561.878,160.226,560.182,160.226 C558.487,160.226,557.336,159.62,556.73,158.408 C556.398,157.742,556.231,156.792,556.231,155.557 C556.231,155.557,556.231,149.917,556.231,149.917 z M570.477,149.644 C571.749,149.644,572.735,149.979,573.437,150.649 C574.139,151.319,574.529,152.08,574.606,152.932 C574.606,152.932,573.28,152.932,573.28,152.932 C573.13,152.285,572.83,151.772,572.381,151.394 C571.932,151.016,571.302,150.827,570.491,150.827 C569.502,150.827,568.703,151.174,568.095,151.869 C567.487,152.564,567.182,153.629,567.182,155.065 C567.182,156.241,567.457,157.194,568.006,157.926 C568.555,158.657,569.375,159.023,570.464,159.023 C571.466,159.023,572.23,158.638,572.754,157.868 C573.032,157.462,573.239,156.929,573.376,156.268 C573.376,156.268,574.702,156.268,574.702,156.268 C574.583,157.325,574.192,158.212,573.526,158.927 C572.729,159.789,571.653,160.219,570.3,160.219 C569.133,160.219,568.153,159.866,567.36,159.16 C566.317,158.225,565.795,156.783,565.795,154.832 C565.795,153.351,566.187,152.137,566.971,151.189 C567.818,150.159,568.987,149.644,570.477,149.644 z M583.664,149.917 C583.664,149.917,583.664,151.114,583.664,151.114 C583.664,151.114,580.28,151.114,580.28,151.114 C580.28,151.114,580.28,159.959,580.28,159.959 C580.28,159.959,578.899,159.959,578.899,159.959 C578.899,159.959,578.899,151.114,578.899,151.114 C578.899,151.114,575.515,151.114,575.515,151.114 C575.515,151.114,575.515,149.917,575.515,149.917 z M586.385,149.917 C586.385,149.917,586.385,156.124,586.385,156.124 C586.385,156.854,586.521,157.46,586.795,157.943 C587.2,158.672,587.884,159.037,588.846,159.037 C589.999,159.037,590.782,158.642,591.197,157.854 C591.42,157.426,591.532,156.849,591.532,156.124 C591.532,156.124,591.532,149.917,591.532,149.917 C591.532,149.917,592.913,149.917,592.913,149.917 C592.913,149.917,592.913,155.557,592.913,155.557 C592.913,156.792,592.747,157.742,592.414,158.408 C591.803,159.62,590.65,160.226,588.955,160.226 C587.26,160.226,586.109,159.62,585.503,158.408 C585.17,157.742,585.004,156.792,585.004,155.557 C585.004,155.557,585.004,149.917,585.004,149.917 z M599.687,154.518 C600.325,154.518,600.83,154.39,601.201,154.135 C601.573,153.88,601.759,153.42,601.759,152.754 C601.759,152.039,601.499,151.551,600.979,151.291 C600.701,151.155,600.33,151.086,599.865,151.086 C599.865,151.086,596.543,151.086,596.543,151.086 C596.543,151.086,596.543,154.518,596.543,154.518 z M595.182,149.917 C595.182,149.917,599.831,149.917,599.831,149.917 C600.596,149.917,601.228,150.029,601.724,150.252 C602.668,150.681,603.139,151.471,603.139,152.624 C603.139,153.226,603.015,153.718,602.767,154.101 C602.519,154.484,602.171,154.791,601.724,155.024 C602.116,155.183,602.411,155.393,602.61,155.653 C602.808,155.913,602.918,156.334,602.941,156.917 C602.941,156.917,602.989,158.264,602.989,158.264 C603.003,158.647,603.035,158.932,603.085,159.119 C603.167,159.438,603.313,159.643,603.522,159.734 C603.522,159.734,603.522,159.959,603.522,159.959 C603.522,159.959,601.854,159.959,601.854,159.959 C601.809,159.873,601.772,159.761,601.745,159.624 C601.718,159.488,601.695,159.223,601.677,158.831 C601.677,158.831,601.595,157.157,601.595,157.157 C601.563,156.5,601.319,156.061,600.863,155.837 C600.603,155.714,600.195,155.653,599.639,155.653 C599.639,155.653,596.543,155.653,596.543,155.653 C596.543,155.653,596.543,159.959,596.543,159.959 C596.543,159.959,595.182,159.959,595.182,159.959 z M605.259,149.917 C605.259,149.917,612.58,149.917,612.58,149.917 C612.58,149.917,612.58,151.148,612.58,151.148 C612.58,151.148,606.585,151.148,606.585,151.148 C606.585,151.148,606.585,154.197,606.585,154.197 C606.585,154.197,612.129,154.197,612.129,154.197 C612.129,154.197,612.129,155.359,612.129,155.359 C612.129,155.359,606.585,155.359,606.585,155.359 C606.585,155.359,606.585,158.763,606.585,158.763 C606.585,158.763,612.682,158.763,612.682,158.763 C612.682,158.763,612.682,159.959,612.682,159.959 C612.682,159.959,605.259,159.959,605.259,159.959 z M618.322,158.797 C618.782,158.797,619.161,158.749,619.457,158.654 C619.985,158.476,620.418,158.134,620.756,157.628 C621.025,157.223,621.218,156.703,621.337,156.07 C621.405,155.692,621.439,155.341,621.439,155.017 C621.439,153.773,621.192,152.807,620.698,152.119 C620.203,151.43,619.407,151.086,618.308,151.086 C618.308,151.086,615.895,151.086,615.895,151.086 C615.895,151.086,615.895,158.797,615.895,158.797 z M614.528,149.917 C614.528,149.917,618.596,149.917,618.596,149.917 C619.976,149.917,621.047,150.407,621.808,151.387 C622.487,152.271,622.827,153.404,622.827,154.785 C622.827,155.851,622.626,156.815,622.225,157.676 C621.519,159.198,620.305,159.959,618.582,159.959 C618.582,159.959,614.528,159.959,614.528,159.959 z"/>
        </defs>
        <use xlink:href="#19" style="fill:#000000;fill-opacity:1;fill-rule:nonzero;opacity:1;stroke:none;"/>
      </g>
    </defs>
    <use xlink:href="#18"/>
    <defs>
      <title>Text</title>
      <g id="20">
        <defs>
          <path id="21" d="M199.119,349.171 C199.119,349.171,200.479,349.171,200.479,349.171 C200.479,349.171,200.479,358.016,200.479,358.016 C200.479,358.016,205.565,358.016,205.565,358.016 C205.565,358.016,205.565,359.213,205.565,359.213 C205.565,359.213,199.119,359.213,199.119,359.213 z M207.213,349.171 C207.213,349.171,208.587,349.171,208.587,349.171 C208.587,349.171,208.587,359.213,208.587,359.213 C208.587,359.213,207.213,359.213,207.213,359.213 z M210.795,349.171 C210.795,349.171,212.401,349.171,212.401,349.171 C212.401,349.171,217.473,357.306,217.473,357.306 C217.473,357.306,217.473,349.171,217.473,349.171 C217.473,349.171,218.765,349.171,218.765,349.171 C218.765,349.171,218.765,359.213,218.765,359.213 C218.765,359.213,217.241,359.213,217.241,359.213 C217.241,359.213,212.093,351.085,212.093,351.085 C212.093,351.085,212.093,359.213,212.093,359.213 C212.093,359.213,210.795,359.213,210.795,359.213 z M221.035,349.171 C221.035,349.171,228.356,349.171,228.356,349.171 C228.356,349.171,228.356,350.401,228.356,350.401 C228.356,350.401,222.361,350.401,222.361,350.401 C222.361,350.401,222.361,353.45,222.361,353.45 C222.361,353.45,227.905,353.45,227.905,353.45 C227.905,353.45,227.905,354.612,227.905,354.612 C227.905,354.612,222.361,354.612,222.361,354.612 C222.361,354.612,222.361,358.016,222.361,358.016 C222.361,358.016,228.459,358.016,228.459,358.016 C228.459,358.016,228.459,359.213,228.459,359.213 C228.459,359.213,221.035,359.213,221.035,359.213 z M235.397,355.098 C235.397,355.098,233.873,350.661,233.873,350.661 C233.873,350.661,232.253,355.098,232.253,355.098 z M233.162,349.171 C233.162,349.171,234.7,349.171,234.7,349.171 C234.7,349.171,238.343,359.213,238.343,359.213 C238.343,359.213,236.853,359.213,236.853,359.213 C236.853,359.213,235.835,356.205,235.835,356.205 C235.835,356.205,231.863,356.205,231.863,356.205 C231.863,356.205,230.776,359.213,230.776,359.213 C230.776,359.213,229.382,359.213,229.382,359.213 z M244.25,353.771 C244.888,353.771,245.392,353.644,245.764,353.389 C246.135,353.133,246.321,352.673,246.321,352.008 C246.321,351.292,246.061,350.805,245.542,350.545 C245.264,350.408,244.892,350.34,244.427,350.34 C244.427,350.34,241.105,350.34,241.105,350.34 C241.105,350.34,241.105,353.771,241.105,353.771 z M239.745,349.171 C239.745,349.171,244.393,349.171,244.393,349.171 C245.159,349.171,245.79,349.282,246.287,349.506 C247.23,349.934,247.702,350.725,247.702,351.878 C247.702,352.479,247.578,352.972,247.329,353.354 C247.081,353.737,246.733,354.045,246.287,354.277 C246.679,354.437,246.974,354.646,247.172,354.906 C247.37,355.166,247.481,355.587,247.504,356.171 C247.504,356.171,247.551,357.517,247.551,357.517 C247.565,357.9,247.597,358.185,247.647,358.372 C247.729,358.691,247.875,358.896,248.085,358.987 C248.085,358.987,248.085,359.213,248.085,359.213 C248.085,359.213,246.417,359.213,246.417,359.213 C246.371,359.126,246.335,359.014,246.307,358.878 C246.28,358.741,246.257,358.477,246.239,358.085 C246.239,358.085,246.157,356.41,246.157,356.41 C246.125,355.754,245.881,355.314,245.425,355.091 C245.166,354.968,244.758,354.906,244.202,354.906 C244.202,354.906,241.105,354.906,241.105,354.906 C241.105,354.906,241.105,359.213,241.105,359.213 C241.105,359.213,239.745,359.213,239.745,359.213 z M254.469,355.973 C254.501,356.542,254.636,357.005,254.873,357.36 C255.324,358.026,256.119,358.358,257.258,358.358 C257.769,358.358,258.234,358.285,258.653,358.139 C259.464,357.857,259.87,357.351,259.87,356.622 C259.87,356.075,259.699,355.685,259.357,355.453 C259.011,355.225,258.468,355.027,257.73,354.858 C257.73,354.858,256.37,354.551,256.37,354.551 C255.481,354.35,254.852,354.129,254.483,353.888 C253.845,353.468,253.526,352.842,253.526,352.008 C253.526,351.105,253.838,350.365,254.463,349.786 C255.087,349.207,255.971,348.918,257.115,348.918 C258.168,348.918,259.062,349.172,259.798,349.68 C260.534,350.188,260.902,351,260.902,352.117 C260.902,352.117,259.624,352.117,259.624,352.117 C259.555,351.579,259.409,351.167,259.186,350.88 C258.771,350.356,258.067,350.094,257.074,350.094 C256.272,350.094,255.695,350.262,255.344,350.599 C254.993,350.937,254.818,351.329,254.818,351.775 C254.818,352.267,255.023,352.627,255.433,352.855 C255.702,353.001,256.311,353.183,257.258,353.402 C257.258,353.402,258.667,353.723,258.667,353.723 C259.346,353.878,259.87,354.09,260.239,354.359 C260.877,354.829,261.196,355.51,261.196,356.403 C261.196,357.515,260.792,358.31,259.983,358.789 C259.174,359.267,258.234,359.507,257.163,359.507 C255.914,359.507,254.937,359.188,254.23,358.55 C253.524,357.916,253.177,357.057,253.191,355.973 z M270.226,349.171 C270.226,349.171,270.226,350.367,270.226,350.367 C270.226,350.367,266.842,350.367,266.842,350.367 C266.842,350.367,266.842,359.213,266.842,359.213 C266.842,359.213,265.462,359.213,265.462,359.213 C265.462,359.213,265.462,350.367,265.462,350.367 C265.462,350.367,262.078,350.367,262.078,350.367 C262.078,350.367,262.078,349.171,262.078,349.171 z M276.139,353.771 C276.777,353.771,277.282,353.644,277.653,353.389 C278.025,353.133,278.211,352.673,278.211,352.008 C278.211,351.292,277.951,350.805,277.431,350.545 C277.153,350.408,276.782,350.34,276.317,350.34 C276.317,350.34,272.995,350.34,272.995,350.34 C272.995,350.34,272.995,353.771,272.995,353.771 z M271.634,349.171 C271.634,349.171,276.283,349.171,276.283,349.171 C277.048,349.171,277.68,349.282,278.176,349.506 C279.12,349.934,279.591,350.725,279.591,351.878 C279.591,352.479,279.467,352.972,279.219,353.354 C278.971,353.737,278.623,354.045,278.176,354.277 C278.568,354.437,278.863,354.646,279.062,354.906 C279.26,355.166,279.37,355.587,279.393,356.171 C279.393,356.171,279.441,357.517,279.441,357.517 C279.455,357.9,279.487,358.185,279.537,358.372 C279.619,358.691,279.765,358.896,279.974,358.987 C279.974,358.987,279.974,359.213,279.974,359.213 C279.974,359.213,278.306,359.213,278.306,359.213 C278.261,359.126,278.224,359.014,278.197,358.878 C278.17,358.741,278.147,358.477,278.129,358.085 C278.129,358.085,278.047,356.41,278.047,356.41 C278.015,355.754,277.771,355.314,277.315,355.091 C277.055,354.968,276.647,354.906,276.091,354.906 C276.091,354.906,272.995,354.906,272.995,354.906 C272.995,354.906,272.995,359.213,272.995,359.213 C272.995,359.213,271.634,359.213,271.634,359.213 z M283.057,349.171 C283.057,349.171,283.057,355.378,283.057,355.378 C283.057,356.107,283.194,356.713,283.467,357.196 C283.873,357.925,284.557,358.29,285.518,358.29 C286.671,358.29,287.455,357.896,287.87,357.107 C288.093,356.679,288.205,356.102,288.205,355.378 C288.205,355.378,288.205,349.171,288.205,349.171 C288.205,349.171,289.586,349.171,289.586,349.171 C289.586,349.171,289.586,354.81,289.586,354.81 C289.586,356.045,289.419,356.996,289.087,357.661 C288.476,358.873,287.323,359.479,285.628,359.479 C283.932,359.479,282.782,358.873,282.175,357.661 C281.843,356.996,281.676,356.045,281.676,354.81 C281.676,354.81,281.676,349.171,281.676,349.171 z M295.923,348.897 C297.194,348.897,298.181,349.232,298.882,349.902 C299.584,350.572,299.974,351.333,300.051,352.185 C300.051,352.185,298.725,352.185,298.725,352.185 C298.575,351.538,298.275,351.026,297.826,350.647 C297.377,350.269,296.747,350.08,295.936,350.08 C294.947,350.08,294.149,350.427,293.54,351.122 C292.932,351.817,292.628,352.883,292.628,354.318 C292.628,355.494,292.902,356.448,293.451,357.179 C294,357.91,294.82,358.276,295.909,358.276 C296.911,358.276,297.675,357.891,298.199,357.121 C298.477,356.715,298.684,356.182,298.821,355.521 C298.821,355.521,300.147,355.521,300.147,355.521 C300.029,356.579,299.637,357.465,298.971,358.181 C298.174,359.042,297.098,359.473,295.745,359.473 C294.578,359.473,293.598,359.119,292.805,358.413 C291.762,357.479,291.24,356.036,291.24,354.086 C291.24,352.605,291.632,351.39,292.416,350.442 C293.263,349.412,294.432,348.897,295.923,348.897 z M309.109,349.171 C309.109,349.171,309.109,350.367,309.109,350.367 C309.109,350.367,305.725,350.367,305.725,350.367 C305.725,350.367,305.725,359.213,305.725,359.213 C305.725,359.213,304.344,359.213,304.344,359.213 C304.344,359.213,304.344,350.367,304.344,350.367 C304.344,350.367,300.961,350.367,300.961,350.367 C300.961,350.367,300.961,349.171,300.961,349.171 z M311.83,349.171 C311.83,349.171,311.83,355.378,311.83,355.378 C311.83,356.107,311.966,356.713,312.24,357.196 C312.646,357.925,313.329,358.29,314.291,358.29 C315.444,358.29,316.228,357.896,316.642,357.107 C316.866,356.679,316.977,356.102,316.977,355.378 C316.977,355.378,316.977,349.171,316.977,349.171 C316.977,349.171,318.358,349.171,318.358,349.171 C318.358,349.171,318.358,354.81,318.358,354.81 C318.358,356.045,318.192,356.996,317.859,357.661 C317.248,358.873,316.095,359.479,314.4,359.479 C312.705,359.479,311.554,358.873,310.948,357.661 C310.615,356.996,310.449,356.045,310.449,354.81 C310.449,354.81,310.449,349.171,310.449,349.171 z M325.132,353.771 C325.771,353.771,326.275,353.644,326.647,353.389 C327.018,353.133,327.204,352.673,327.204,352.008 C327.204,351.292,326.944,350.805,326.424,350.545 C326.146,350.408,325.775,350.34,325.31,350.34 C325.31,350.34,321.988,350.34,321.988,350.34 C321.988,350.34,321.988,353.771,321.988,353.771 z M320.628,349.171 C320.628,349.171,325.276,349.171,325.276,349.171 C326.042,349.171,326.673,349.282,327.17,349.506 C328.113,349.934,328.585,350.725,328.585,351.878 C328.585,352.479,328.46,352.972,328.212,353.354 C327.964,353.737,327.616,354.045,327.17,354.277 C327.561,354.437,327.857,354.646,328.055,354.906 C328.253,355.166,328.364,355.587,328.386,356.171 C328.386,356.171,328.434,357.517,328.434,357.517 C328.448,357.9,328.48,358.185,328.53,358.372 C328.612,358.691,328.758,358.896,328.967,358.987 C328.967,358.987,328.967,359.213,328.967,359.213 C328.967,359.213,327.299,359.213,327.299,359.213 C327.254,359.126,327.217,359.014,327.19,358.878 C327.163,358.741,327.14,358.477,327.122,358.085 C327.122,358.085,327.04,356.41,327.04,356.41 C327.008,355.754,326.764,355.314,326.308,355.091 C326.048,354.968,325.641,354.906,325.085,354.906 C325.085,354.906,321.988,354.906,321.988,354.906 C321.988,354.906,321.988,359.213,321.988,359.213 C321.988,359.213,320.628,359.213,320.628,359.213 z M330.704,349.171 C330.704,349.171,338.025,349.171,338.025,349.171 C338.025,349.171,338.025,350.401,338.025,350.401 C338.025,350.401,332.03,350.401,332.03,350.401 C332.03,350.401,332.03,353.45,332.03,353.45 C332.03,353.45,337.574,353.45,337.574,353.45 C337.574,353.45,337.574,354.612,337.574,354.612 C337.574,354.612,332.03,354.612,332.03,354.612 C332.03,354.612,332.03,358.016,332.03,358.016 C332.03,358.016,338.128,358.016,338.128,358.016 C338.128,358.016,338.128,359.213,338.128,359.213 C338.128,359.213,330.704,359.213,330.704,359.213 z M343.767,358.051 C344.228,358.051,344.606,358.003,344.902,357.907 C345.431,357.729,345.864,357.388,346.201,356.882 C346.47,356.476,346.663,355.957,346.782,355.323 C346.85,354.945,346.884,354.594,346.884,354.27 C346.884,353.026,346.637,352.06,346.143,351.372 C345.648,350.684,344.852,350.34,343.754,350.34 C343.754,350.34,341.34,350.34,341.34,350.34 C341.34,350.34,341.34,358.051,341.34,358.051 z M339.973,349.171 C339.973,349.171,344.041,349.171,344.041,349.171 C345.422,349.171,346.493,349.661,347.254,350.64 C347.933,351.525,348.272,352.657,348.272,354.038 C348.272,355.104,348.072,356.068,347.671,356.93 C346.964,358.452,345.75,359.213,344.027,359.213 C344.027,359.213,339.973,359.213,339.973,359.213 z"/>
        </defs>
        <use xlink:href="#21" style="fill:#000000;fill-opacity:1;fill-rule:nonzero;opacity:1;stroke:none;"/>
      </g>
    </defs>
    <use xlink:href="#20"/>
    <defs>
      <title>Text</title>
      <g id="22">
        <defs>
          <path id="23" d="M444.466,347.171 C444.466,347.171,446.414,347.171,446.414,347.171 C446.414,347.171,449.299,355.661,449.299,355.661 C449.299,355.661,452.163,347.171,452.163,347.171 C452.163,347.171,454.091,347.171,454.091,347.171 C454.091,347.171,454.091,357.213,454.091,357.213 C454.091,357.213,452.799,357.213,452.799,357.213 C452.799,357.213,452.799,351.286,452.799,351.286 C452.799,351.081,452.804,350.741,452.813,350.267 C452.822,349.793,452.826,349.285,452.826,348.743 C452.826,348.743,449.962,357.213,449.962,357.213 C449.962,357.213,448.615,357.213,448.615,357.213 C448.615,357.213,445.731,348.743,445.731,348.743 C445.731,348.743,445.731,349.051,445.731,349.051 C445.731,349.297,445.736,349.672,445.748,350.175 C445.759,350.679,445.765,351.049,445.765,351.286 C445.765,351.286,445.765,357.213,445.765,357.213 C445.765,357.213,444.466,357.213,444.466,357.213 z M460.496,346.897 C462.269,346.897,463.582,347.467,464.434,348.606 C465.099,349.495,465.432,350.632,465.432,352.017 C465.432,353.517,465.051,354.763,464.29,355.757 C463.397,356.923,462.123,357.507,460.469,357.507 C458.924,357.507,457.71,356.996,456.825,355.975 C456.037,354.991,455.643,353.747,455.643,352.243 C455.643,350.885,455.98,349.723,456.655,348.757 C457.52,347.517,458.801,346.897,460.496,346.897 z M460.633,356.29 C461.832,356.29,462.699,355.86,463.234,355.001 C463.77,354.142,464.037,353.154,464.037,352.038 C464.037,350.858,463.729,349.907,463.111,349.187 C462.494,348.467,461.649,348.107,460.578,348.107 C459.539,348.107,458.692,348.464,458.035,349.177 C457.379,349.89,457.051,350.942,457.051,352.332 C457.051,353.444,457.332,354.382,457.895,355.145 C458.458,355.908,459.371,356.29,460.633,356.29 z M470.907,356.051 C471.368,356.051,471.746,356.003,472.042,355.907 C472.571,355.729,473.004,355.388,473.341,354.882 C473.61,354.476,473.804,353.957,473.922,353.323 C473.99,352.945,474.025,352.594,474.025,352.27 C474.025,351.026,473.777,350.06,473.283,349.372 C472.788,348.684,471.992,348.34,470.894,348.34 C470.894,348.34,468.481,348.34,468.481,348.34 C468.481,348.34,468.481,356.051,468.481,356.051 z M467.114,347.171 C467.114,347.171,471.181,347.171,471.181,347.171 C472.562,347.171,473.633,347.661,474.394,348.64 C475.073,349.525,475.412,350.657,475.412,352.038 C475.412,353.104,475.212,354.068,474.811,354.93 C474.104,356.452,472.89,357.213,471.167,357.213 C471.167,357.213,467.114,357.213,467.114,357.213 z M478.639,347.171 C478.639,347.171,478.639,353.378,478.639,353.378 C478.639,354.107,478.776,354.713,479.049,355.196 C479.455,355.925,480.138,356.29,481.1,356.29 C482.253,356.29,483.037,355.896,483.451,355.107 C483.675,354.679,483.786,354.102,483.786,353.378 C483.786,353.378,483.786,347.171,483.786,347.171 C483.786,347.171,485.167,347.171,485.167,347.171 C485.167,347.171,485.167,352.81,485.167,352.81 C485.167,354.045,485.001,354.996,484.668,355.661 C484.058,356.873,482.905,357.479,481.209,357.479 C479.514,357.479,478.363,356.873,477.757,355.661 C477.424,354.996,477.258,354.045,477.258,352.81 C477.258,352.81,477.258,347.171,477.258,347.171 z M487.273,347.171 C487.273,347.171,488.633,347.171,488.633,347.171 C488.633,347.171,488.633,356.016,488.633,356.016 C488.633,356.016,493.719,356.016,493.719,356.016 C493.719,356.016,493.719,357.213,493.719,357.213 C493.719,357.213,487.273,357.213,487.273,357.213 z M500.213,353.098 C500.213,353.098,498.689,348.661,498.689,348.661 C498.689,348.661,497.069,353.098,497.069,353.098 z M497.978,347.171 C497.978,347.171,499.516,347.171,499.516,347.171 C499.516,347.171,503.159,357.213,503.159,357.213 C503.159,357.213,501.669,357.213,501.669,357.213 C501.669,357.213,500.651,354.205,500.651,354.205 C500.651,354.205,496.679,354.205,496.679,354.205 C496.679,354.205,495.592,357.213,495.592,357.213 C495.592,357.213,494.198,357.213,494.198,357.213 z M509.066,351.771 C509.704,351.771,510.208,351.644,510.58,351.389 C510.951,351.133,511.137,350.673,511.137,350.008 C511.137,349.292,510.877,348.805,510.358,348.545 C510.08,348.408,509.708,348.34,509.243,348.34 C509.243,348.34,505.921,348.34,505.921,348.34 C505.921,348.34,505.921,351.771,505.921,351.771 z M504.561,347.171 C504.561,347.171,509.209,347.171,509.209,347.171 C509.975,347.171,510.606,347.282,511.103,347.506 C512.046,347.934,512.518,348.725,512.518,349.878 C512.518,350.479,512.394,350.972,512.145,351.354 C511.897,351.737,511.549,352.045,511.103,352.277 C511.495,352.437,511.79,352.646,511.988,352.906 C512.186,353.166,512.297,353.587,512.32,354.171 C512.32,354.171,512.367,355.517,512.367,355.517 C512.381,355.9,512.413,356.185,512.463,356.372 C512.545,356.691,512.691,356.896,512.901,356.987 C512.901,356.987,512.901,357.213,512.901,357.213 C512.901,357.213,511.233,357.213,511.233,357.213 C511.187,357.126,511.151,357.014,511.123,356.878 C511.096,356.741,511.073,356.477,511.055,356.085 C511.055,356.085,510.973,354.41,510.973,354.41 C510.941,353.754,510.697,353.314,510.241,353.091 C509.982,352.968,509.574,352.906,509.018,352.906 C509.018,352.906,505.921,352.906,505.921,352.906 C505.921,352.906,505.921,357.213,505.921,357.213 C505.921,357.213,504.561,357.213,504.561,357.213 z M519.285,353.973 C519.317,354.542,519.452,355.005,519.689,355.36 C520.14,356.026,520.935,356.358,522.074,356.358 C522.585,356.358,523.05,356.285,523.469,356.139 C524.28,355.857,524.686,355.351,524.686,354.622 C524.686,354.075,524.515,353.685,524.173,353.453 C523.827,353.225,523.284,353.027,522.546,352.858 C522.546,352.858,521.186,352.551,521.186,352.551 C520.297,352.35,519.668,352.129,519.299,351.888 C518.661,351.468,518.342,350.842,518.342,350.008 C518.342,349.105,518.654,348.365,519.279,347.786 C519.903,347.207,520.787,346.918,521.931,346.918 C522.984,346.918,523.878,347.172,524.614,347.68 C525.35,348.188,525.718,349,525.718,350.117 C525.718,350.117,524.44,350.117,524.44,350.117 C524.371,349.579,524.226,349.167,524.002,348.88 C523.587,348.356,522.883,348.094,521.89,348.094 C521.088,348.094,520.511,348.262,520.16,348.599 C519.81,348.937,519.634,349.329,519.634,349.775 C519.634,350.267,519.839,350.627,520.249,350.855 C520.518,351.001,521.127,351.183,522.074,351.402 C522.074,351.402,523.483,351.723,523.483,351.723 C524.162,351.878,524.686,352.09,525.055,352.359 C525.693,352.829,526.012,353.51,526.012,354.403 C526.012,355.515,525.607,356.31,524.799,356.789 C523.99,357.267,523.05,357.507,521.979,357.507 C520.73,357.507,519.753,357.188,519.046,356.55 C518.34,355.916,517.993,355.057,518.007,353.973 z M535.042,347.171 C535.042,347.171,535.042,348.367,535.042,348.367 C535.042,348.367,531.658,348.367,531.658,348.367 C531.658,348.367,531.658,357.213,531.658,357.213 C531.658,357.213,530.278,357.213,530.278,357.213 C530.278,357.213,530.278,348.367,530.278,348.367 C530.278,348.367,526.894,348.367,526.894,348.367 C526.894,348.367,526.894,347.171,526.894,347.171 z M540.955,351.771 C541.593,351.771,542.098,351.644,542.469,351.389 C542.841,351.133,543.027,350.673,543.027,350.008 C543.027,349.292,542.767,348.805,542.247,348.545 C541.969,348.408,541.598,348.34,541.133,348.34 C541.133,348.34,537.811,348.34,537.811,348.34 C537.811,348.34,537.811,351.771,537.811,351.771 z M536.45,347.171 C536.45,347.171,541.099,347.171,541.099,347.171 C541.865,347.171,542.496,347.282,542.992,347.506 C543.936,347.934,544.407,348.725,544.407,349.878 C544.407,350.479,544.283,350.972,544.035,351.354 C543.787,351.737,543.439,352.045,542.992,352.277 C543.384,352.437,543.679,352.646,543.878,352.906 C544.076,353.166,544.186,353.587,544.209,354.171 C544.209,354.171,544.257,355.517,544.257,355.517 C544.271,355.9,544.303,356.185,544.353,356.372 C544.435,356.691,544.581,356.896,544.79,356.987 C544.79,356.987,544.79,357.213,544.79,357.213 C544.79,357.213,543.122,357.213,543.122,357.213 C543.077,357.126,543.04,357.014,543.013,356.878 C542.986,356.741,542.963,356.477,542.945,356.085 C542.945,356.085,542.863,354.41,542.863,354.41 C542.831,353.754,542.587,353.314,542.131,353.091 C541.871,352.968,541.463,352.906,540.907,352.906 C540.907,352.906,537.811,352.906,537.811,352.906 C537.811,352.906,537.811,357.213,537.811,357.213 C537.811,357.213,536.45,357.213,536.45,357.213 z M547.873,347.171 C547.873,347.171,547.873,353.378,547.873,353.378 C547.873,354.107,548.01,354.713,548.283,355.196 C548.689,355.925,549.373,356.29,550.334,356.29 C551.487,356.29,552.271,355.896,552.686,355.107 C552.909,354.679,553.021,354.102,553.021,353.378 C553.021,353.378,553.021,347.171,553.021,347.171 C553.021,347.171,554.402,347.171,554.402,347.171 C554.402,347.171,554.402,352.81,554.402,352.81 C554.402,354.045,554.235,354.996,553.903,355.661 C553.292,356.873,552.139,357.479,550.444,357.479 C548.748,357.479,547.598,356.873,546.991,355.661 C546.659,354.996,546.492,354.045,546.492,352.81 C546.492,352.81,546.492,347.171,546.492,347.171 z M560.739,346.897 C562.01,346.897,562.997,347.232,563.698,347.902 C564.4,348.572,564.79,349.333,564.867,350.185 C564.867,350.185,563.541,350.185,563.541,350.185 C563.391,349.538,563.091,349.026,562.642,348.647 C562.193,348.269,561.563,348.08,560.752,348.08 C559.763,348.08,558.965,348.427,558.356,349.122 C557.748,349.817,557.444,350.883,557.444,352.318 C557.444,353.494,557.718,354.448,558.267,355.179 C558.816,355.91,559.636,356.276,560.725,356.276 C561.727,356.276,562.491,355.891,563.015,355.121 C563.293,354.715,563.5,354.182,563.637,353.521 C563.637,353.521,564.963,353.521,564.963,353.521 C564.845,354.579,564.453,355.465,563.787,356.181 C562.99,357.042,561.914,357.473,560.561,357.473 C559.394,357.473,558.414,357.119,557.621,356.413 C556.578,355.479,556.056,354.036,556.056,352.086 C556.056,350.605,556.448,349.39,557.232,348.442 C558.079,347.412,559.248,346.897,560.739,346.897 z M573.925,347.171 C573.925,347.171,573.925,348.367,573.925,348.367 C573.925,348.367,570.541,348.367,570.541,348.367 C570.541,348.367,570.541,357.213,570.541,357.213 C570.541,357.213,569.16,357.213,569.16,357.213 C569.16,357.213,569.16,348.367,569.16,348.367 C569.16,348.367,565.777,348.367,565.777,348.367 C565.777,348.367,565.777,347.171,565.777,347.171 z M576.646,347.171 C576.646,347.171,576.646,353.378,576.646,353.378 C576.646,354.107,576.782,354.713,577.056,355.196 C577.461,355.925,578.145,356.29,579.107,356.29 C580.26,356.29,581.044,355.896,581.458,355.107 C581.682,354.679,581.793,354.102,581.793,353.378 C581.793,353.378,581.793,347.171,581.793,347.171 C581.793,347.171,583.174,347.171,583.174,347.171 C583.174,347.171,583.174,352.81,583.174,352.81 C583.174,354.045,583.008,354.996,582.675,355.661 C582.064,356.873,580.911,357.479,579.216,357.479 C577.521,357.479,576.37,356.873,575.764,355.661 C575.431,354.996,575.265,354.045,575.265,352.81 C575.265,352.81,575.265,347.171,575.265,347.171 z M589.948,351.771 C590.586,351.771,591.091,351.644,591.463,351.389 C591.834,351.133,592.02,350.673,592.02,350.008 C592.02,349.292,591.76,348.805,591.24,348.545 C590.962,348.408,590.591,348.34,590.126,348.34 C590.126,348.34,586.804,348.34,586.804,348.34 C586.804,348.34,586.804,351.771,586.804,351.771 z M585.444,347.171 C585.444,347.171,590.092,347.171,590.092,347.171 C590.858,347.171,591.489,347.282,591.986,347.506 C592.929,347.934,593.401,348.725,593.401,349.878 C593.401,350.479,593.276,350.972,593.028,351.354 C592.78,351.737,592.432,352.045,591.986,352.277 C592.378,352.437,592.673,352.646,592.871,352.906 C593.069,353.166,593.18,353.587,593.202,354.171 C593.202,354.171,593.25,355.517,593.25,355.517 C593.264,355.9,593.296,356.185,593.346,356.372 C593.428,356.691,593.574,356.896,593.783,356.987 C593.783,356.987,593.783,357.213,593.783,357.213 C593.783,357.213,592.115,357.213,592.115,357.213 C592.07,357.126,592.033,357.014,592.006,356.878 C591.979,356.741,591.956,356.477,591.938,356.085 C591.938,356.085,591.856,354.41,591.856,354.41 C591.824,353.754,591.58,353.314,591.124,353.091 C590.865,352.968,590.457,352.906,589.901,352.906 C589.901,352.906,586.804,352.906,586.804,352.906 C586.804,352.906,586.804,357.213,586.804,357.213 C586.804,357.213,585.444,357.213,585.444,357.213 z M595.52,347.171 C595.52,347.171,602.841,347.171,602.841,347.171 C602.841,347.171,602.841,348.401,602.841,348.401 C602.841,348.401,596.846,348.401,596.846,348.401 C596.846,348.401,596.846,351.45,596.846,351.45 C596.846,351.45,602.39,351.45,602.39,351.45 C602.39,351.45,602.39,352.612,602.39,352.612 C602.39,352.612,596.846,352.612,596.846,352.612 C596.846,352.612,596.846,356.016,596.846,356.016 C596.846,356.016,602.944,356.016,602.944,356.016 C602.944,356.016,602.944,357.213,602.944,357.213 C602.944,357.213,595.52,357.213,595.52,357.213 z M608.583,356.051 C609.044,356.051,609.422,356.003,609.718,355.907 C610.247,355.729,610.68,355.388,611.017,354.882 C611.286,354.476,611.479,353.957,611.598,353.323 C611.666,352.945,611.7,352.594,611.7,352.27 C611.7,351.026,611.453,350.06,610.959,349.372 C610.464,348.684,609.668,348.34,608.57,348.34 C608.57,348.34,606.156,348.34,606.156,348.34 C606.156,348.34,606.156,356.051,606.156,356.051 z M604.789,347.171 C604.789,347.171,608.857,347.171,608.857,347.171 C610.238,347.171,611.309,347.661,612.07,348.64 C612.749,349.525,613.088,350.657,613.088,352.038 C613.088,353.104,612.888,354.068,612.487,354.93 C611.78,356.452,610.566,357.213,608.843,357.213 C608.843,357.213,604.789,357.213,604.789,357.213 z"/>
        </defs>
        <use xlink:href="#23" style="fill:#000000;fill-opacity:1;fill-rule:nonzero;opacity:1;stroke:none;"/>
      </g>
    </defs>
    <use xlink:href="#22"/>
    <defs>
      <title>Text</title>
      <g id="24">
        <defs>
          <path id="25" d="M484.691,107.25 C484.691,107.25,487.474,107.25,487.474,107.25 C487.474,107.25,491.596,119.379,491.596,119.379 C491.596,119.379,495.687,107.25,495.687,107.25 C495.687,107.25,498.441,107.25,498.441,107.25 C498.441,107.25,498.441,121.595,498.441,121.595 C498.441,121.595,496.596,121.595,496.596,121.595 C496.596,121.595,496.596,113.129,496.596,113.129 C496.596,112.836,496.602,112.351,496.615,111.674 C496.628,110.996,496.635,110.271,496.635,109.496 C496.635,109.496,492.543,121.595,492.543,121.595 C492.543,121.595,490.619,121.595,490.619,121.595 C490.619,121.595,486.498,109.496,486.498,109.496 C486.498,109.496,486.498,109.935,486.498,109.935 C486.498,110.287,486.506,110.822,486.522,111.542 C486.539,112.261,486.547,112.79,486.547,113.129 C486.547,113.129,486.547,121.595,486.547,121.595 C486.547,121.595,484.691,121.595,484.691,121.595 z M507.592,106.859 C510.124,106.859,511.999,107.673,513.217,109.3 C514.167,110.57,514.642,112.194,514.642,114.174 C514.642,116.315,514.099,118.096,513.012,119.515 C511.736,121.182,509.916,122.015,507.553,122.015 C505.346,122.015,503.611,121.286,502.348,119.828 C501.221,118.422,500.658,116.644,500.658,114.496 C500.658,112.556,501.14,110.896,502.103,109.515 C503.34,107.745,505.17,106.859,507.592,106.859 z M507.787,120.277 C509.499,120.277,510.738,119.663,511.503,118.436 C512.268,117.209,512.65,115.798,512.65,114.203 C512.65,112.517,512.209,111.159,511.327,110.131 C510.445,109.102,509.239,108.588,507.709,108.588 C506.224,108.588,505.014,109.097,504.076,110.116 C503.139,111.135,502.67,112.637,502.67,114.623 C502.67,116.211,503.072,117.551,503.876,118.641 C504.68,119.732,505.984,120.277,507.787,120.277 z M522.465,119.935 C523.122,119.935,523.663,119.867,524.086,119.73 C524.841,119.476,525.46,118.988,525.941,118.265 C526.325,117.686,526.602,116.944,526.771,116.039 C526.869,115.498,526.918,114.997,526.918,114.535 C526.918,112.758,526.565,111.377,525.858,110.394 C525.152,109.411,524.014,108.92,522.445,108.92 C522.445,108.92,518.998,108.92,518.998,108.92 C518.998,108.92,518.998,119.935,518.998,119.935 z M517.045,107.25 C517.045,107.25,522.855,107.25,522.855,107.25 C524.828,107.25,526.358,107.95,527.445,109.349 C528.415,110.612,528.9,112.23,528.9,114.203 C528.9,115.726,528.614,117.103,528.041,118.334 C527.032,120.508,525.297,121.595,522.836,121.595 C522.836,121.595,517.045,121.595,517.045,121.595 z M533.51,107.25 C533.51,107.25,533.51,116.117,533.51,116.117 C533.51,117.159,533.705,118.024,534.096,118.715 C534.675,119.756,535.652,120.277,537.025,120.277 C538.672,120.277,539.792,119.714,540.385,118.588 C540.704,117.976,540.863,117.152,540.863,116.117 C540.863,116.117,540.863,107.25,540.863,107.25 C540.863,107.25,542.836,107.25,542.836,107.25 C542.836,107.25,542.836,115.306,542.836,115.306 C542.836,117.071,542.598,118.428,542.123,119.379 C541.251,121.11,539.603,121.976,537.182,121.976 C534.76,121.976,533.116,121.11,532.25,119.379 C531.775,118.428,531.537,117.071,531.537,115.306 C531.537,115.306,531.537,107.25,531.537,107.25 z M545.844,107.25 C545.844,107.25,547.787,107.25,547.787,107.25 C547.787,107.25,547.787,119.886,547.787,119.886 C547.787,119.886,555.053,119.886,555.053,119.886 C555.053,119.886,555.053,121.595,555.053,121.595 C555.053,121.595,545.844,121.595,545.844,121.595 z M564.33,115.717 C564.33,115.717,562.152,109.379,562.152,109.379 C562.152,109.379,559.838,115.717,559.838,115.717 z M561.137,107.25 C561.137,107.25,563.334,107.25,563.334,107.25 C563.334,107.25,568.539,121.595,568.539,121.595 C568.539,121.595,566.41,121.595,566.41,121.595 C566.41,121.595,564.955,117.299,564.955,117.299 C564.955,117.299,559.281,117.299,559.281,117.299 C559.281,117.299,557.728,121.595,557.728,121.595 C557.728,121.595,555.736,121.595,555.736,121.595 z M576.976,113.822 C577.888,113.822,578.609,113.64,579.14,113.275 C579.67,112.911,579.935,112.253,579.935,111.302 C579.935,110.28,579.564,109.584,578.822,109.213 C578.425,109.017,577.894,108.92,577.23,108.92 C577.23,108.92,572.484,108.92,572.484,108.92 C572.484,108.92,572.484,113.822,572.484,113.822 z M570.541,107.25 C570.541,107.25,577.182,107.25,577.182,107.25 C578.275,107.25,579.177,107.409,579.887,107.728 C581.234,108.34,581.908,109.47,581.908,111.117 C581.908,111.976,581.731,112.679,581.376,113.226 C581.021,113.773,580.525,114.213,579.887,114.545 C580.446,114.773,580.868,115.072,581.151,115.443 C581.434,115.814,581.592,116.416,581.625,117.25 C581.625,117.25,581.693,119.174,581.693,119.174 C581.713,119.72,581.758,120.127,581.83,120.394 C581.947,120.85,582.155,121.143,582.455,121.273 C582.455,121.273,582.455,121.595,582.455,121.595 C582.455,121.595,580.072,121.595,580.072,121.595 C580.007,121.472,579.955,121.312,579.916,121.117 C579.877,120.922,579.844,120.544,579.818,119.984 C579.818,119.984,579.701,117.592,579.701,117.592 C579.655,116.654,579.307,116.026,578.656,115.707 C578.285,115.531,577.702,115.443,576.908,115.443 C576.908,115.443,572.484,115.443,572.484,115.443 C572.484,115.443,572.484,121.595,572.484,121.595 C572.484,121.595,570.541,121.595,570.541,121.595 z"/>
        </defs>
        <use xlink:href="#25" style="fill:#000000;fill-opacity:1;fill-rule:nonzero;opacity:1;stroke:none;"/>
      </g>
    </defs>
    <use xlink:href="#24"/>
    <defs>
      <title>Text</title>
      <g id="26">
        <defs>
          <path id="27" d="M129.225,485.811 C130.039,485.765,130.699,485.573,131.207,485.235 C132.158,484.59,132.633,483.454,132.633,481.826 C132.633,481.097,132.529,480.433,132.32,479.834 C131.917,478.675,131.194,478.096,130.153,478.096 C129.371,478.096,128.815,478.34,128.483,478.828 C128.157,479.323,127.874,480.098,127.633,481.153 C127.633,481.153,127.194,483.096,127.194,483.096 C126.907,484.366,126.591,485.264,126.246,485.791 C125.647,486.703,124.752,487.158,123.561,487.158 C122.272,487.158,121.214,486.713,120.387,485.821 C119.56,484.929,119.147,483.666,119.147,482.032 C119.147,480.528,119.51,479.25,120.236,478.199 C120.961,477.147,122.122,476.621,123.717,476.621 C123.717,476.621,123.717,478.448,123.717,478.448 C122.949,478.545,122.36,478.754,121.949,479.073 C121.201,479.665,120.826,480.671,120.826,482.09 C120.826,483.236,121.067,484.06,121.549,484.561 C122.031,485.062,122.591,485.313,123.229,485.313 C123.932,485.313,124.446,485.02,124.772,484.434 C124.98,484.05,125.24,483.181,125.553,481.826 C125.553,481.826,126.012,479.815,126.012,479.815 C126.233,478.845,126.536,478.096,126.92,477.569 C127.591,476.657,128.564,476.201,129.84,476.201 C131.429,476.201,132.565,476.779,133.248,477.935 C133.932,479.09,134.274,480.433,134.274,481.963 C134.274,483.747,133.818,485.143,132.906,486.153 C132.001,487.162,130.774,487.657,129.225,487.637 z M119.508,463.301 C119.508,463.301,121.217,463.301,121.217,463.301 C121.217,463.301,121.217,468.135,121.217,468.135 C121.217,468.135,133.854,468.135,133.854,468.135 C133.854,468.135,133.854,470.108,133.854,470.108 C133.854,470.108,121.217,470.108,121.217,470.108 C121.217,470.108,121.217,474.942,121.217,474.942 C121.217,474.942,119.508,474.942,119.508,474.942 z M126.08,454.854 C126.08,453.942,125.898,453.221,125.533,452.691 C125.169,452.16,124.511,451.895,123.561,451.895 C122.539,451.895,121.842,452.266,121.471,453.008 C121.276,453.405,121.178,453.936,121.178,454.6 C121.178,454.6,121.178,459.346,121.178,459.346 C121.178,459.346,126.08,459.346,126.08,459.346 z M119.508,461.289 C119.508,461.289,119.508,454.649,119.508,454.649 C119.508,453.555,119.667,452.653,119.987,451.944 C120.598,450.596,121.728,449.922,123.375,449.922 C124.235,449.922,124.938,450.1,125.485,450.454 C126.031,450.809,126.471,451.306,126.803,451.944 C127.031,451.384,127.33,450.962,127.701,450.679 C128.072,450.396,128.675,450.238,129.508,450.205 C129.508,450.205,131.432,450.137,131.432,450.137 C131.979,450.117,132.386,450.072,132.653,450 C133.108,449.883,133.401,449.675,133.531,449.375 C133.531,449.375,133.854,449.375,133.854,449.375 C133.854,449.375,133.854,451.758,133.854,451.758 C133.73,451.823,133.57,451.875,133.375,451.914 C133.18,451.953,132.802,451.986,132.242,452.012 C132.242,452.012,129.85,452.129,129.85,452.129 C128.912,452.175,128.284,452.523,127.965,453.174 C127.789,453.545,127.701,454.128,127.701,454.922 C127.701,454.922,127.701,459.346,127.701,459.346 C127.701,459.346,133.854,459.346,133.854,459.346 C133.854,459.346,133.854,461.289,133.854,461.289 z M119.508,444.971 C119.508,444.971,128.375,444.971,128.375,444.971 C129.417,444.971,130.283,444.776,130.973,444.385 C132.014,443.806,132.535,442.829,132.535,441.455 C132.535,439.808,131.972,438.688,130.846,438.096 C130.234,437.777,129.41,437.617,128.375,437.617 C128.375,437.617,119.508,437.617,119.508,437.617 C119.508,437.617,119.508,435.645,119.508,435.645 C119.508,435.645,127.565,435.645,127.565,435.645 C129.329,435.645,130.686,435.882,131.637,436.358 C133.369,437.23,134.235,438.877,134.235,441.299 C134.235,443.721,133.369,445.365,131.637,446.231 C130.686,446.706,129.329,446.944,127.565,446.944 C127.565,446.944,119.508,446.944,119.508,446.944 z M119.117,426.592 C119.117,424.776,119.596,423.366,120.553,422.364 C121.51,421.361,122.597,420.804,123.815,420.694 C123.815,420.694,123.815,422.588,123.815,422.588 C122.89,422.803,122.158,423.231,121.617,423.872 C121.077,424.514,120.807,425.414,120.807,426.573 C120.807,427.985,121.303,429.126,122.296,429.995 C123.289,430.865,124.811,431.299,126.862,431.299 C128.541,431.299,129.903,430.907,130.948,430.122 C131.993,429.338,132.516,428.168,132.516,426.612 C132.516,425.179,131.966,424.089,130.865,423.34 C130.286,422.943,129.524,422.647,128.58,422.451 C128.58,422.451,128.58,420.557,128.58,420.557 C130.091,420.726,131.357,421.286,132.379,422.237 C133.61,423.376,134.225,424.912,134.225,426.846 C134.225,428.513,133.72,429.912,132.711,431.045 C131.376,432.536,129.316,433.282,126.529,433.282 C124.414,433.282,122.679,432.722,121.324,431.602 C119.853,430.391,119.117,428.721,119.117,426.592 z M119.508,407.754 C119.508,407.754,121.217,407.754,121.217,407.754 C121.217,407.754,121.217,412.588,121.217,412.588 C121.217,412.588,133.854,412.588,133.854,412.588 C133.854,412.588,133.854,414.561,133.854,414.561 C133.854,414.561,121.217,414.561,121.217,414.561 C121.217,414.561,121.217,419.395,121.217,419.395 C121.217,419.395,119.508,419.395,119.508,419.395 z M119.508,403.867 C119.508,403.867,128.375,403.867,128.375,403.867 C129.417,403.867,130.283,403.672,130.973,403.282 C132.014,402.702,132.535,401.726,132.535,400.352 C132.535,398.705,131.972,397.585,130.846,396.992 C130.234,396.673,129.41,396.514,128.375,396.514 C128.375,396.514,119.508,396.514,119.508,396.514 C119.508,396.514,119.508,394.541,119.508,394.541 C119.508,394.541,127.565,394.541,127.565,394.541 C129.329,394.541,130.686,394.779,131.637,395.254 C133.369,396.127,134.235,397.774,134.235,400.196 C134.235,402.617,133.369,404.261,131.637,405.127 C130.686,405.602,129.329,405.84,127.565,405.84 C127.565,405.84,119.508,405.84,119.508,405.84 z M126.08,384.864 C126.08,383.952,125.898,383.231,125.533,382.7 C125.169,382.17,124.511,381.905,123.561,381.905 C122.539,381.905,121.842,382.276,121.471,383.018 C121.276,383.415,121.178,383.946,121.178,384.61 C121.178,384.61,121.178,389.356,121.178,389.356 C121.178,389.356,126.08,389.356,126.08,389.356 z M119.508,391.299 C119.508,391.299,119.508,384.658,119.508,384.658 C119.508,383.565,119.667,382.663,119.986,381.953 C120.598,380.606,121.728,379.932,123.375,379.932 C124.235,379.932,124.938,380.109,125.485,380.464 C126.031,380.819,126.471,381.315,126.803,381.953 C127.031,381.393,127.33,380.972,127.701,380.689 C128.072,380.406,128.675,380.248,129.508,380.215 C129.508,380.215,131.432,380.147,131.432,380.147 C131.979,380.127,132.386,380.082,132.653,380.01 C133.108,379.893,133.401,379.685,133.531,379.385 C133.531,379.385,133.854,379.385,133.854,379.385 C133.854,379.385,133.854,381.768,133.854,381.768 C133.73,381.833,133.57,381.885,133.375,381.924 C133.18,381.963,132.802,381.996,132.242,382.022 C132.242,382.022,129.85,382.139,129.85,382.139 C128.912,382.185,128.284,382.533,127.965,383.184 C127.789,383.555,127.701,384.138,127.701,384.932 C127.701,384.932,127.701,389.356,127.701,389.356 C127.701,389.356,133.854,389.356,133.854,389.356 C133.854,389.356,133.854,391.299,133.854,391.299 z M119.508,376.905 C119.508,376.905,119.508,366.446,119.508,366.446 C119.508,366.446,121.266,366.446,121.266,366.446 C121.266,366.446,121.266,375.01,121.266,375.01 C121.266,375.01,125.621,375.01,125.621,375.01 C125.621,375.01,125.621,367.09,125.621,367.09 C125.621,367.09,127.281,367.09,127.281,367.09 C127.281,367.09,127.281,375.01,127.281,375.01 C127.281,375.01,132.145,375.01,132.145,375.01 C132.145,375.01,132.145,366.299,132.145,366.299 C132.145,366.299,133.854,366.299,133.854,366.299 C133.854,366.299,133.854,376.905,133.854,376.905 z M132.194,358.242 C132.194,357.585,132.125,357.045,131.988,356.621 C131.735,355.866,131.246,355.248,130.524,354.766 C129.944,354.382,129.202,354.105,128.297,353.936 C127.757,353.838,127.255,353.789,126.793,353.789 C125.016,353.789,123.636,354.143,122.653,354.849 C121.669,355.555,121.178,356.693,121.178,358.262 C121.178,358.262,121.178,361.709,121.178,361.709 C121.178,361.709,132.194,361.709,132.194,361.709 z M119.508,363.662 C119.508,363.662,119.508,357.852,119.508,357.852 C119.508,355.879,120.208,354.349,121.608,353.262 C122.871,352.292,124.488,351.807,126.461,351.807 C127.985,351.807,129.361,352.093,130.592,352.666 C132.766,353.675,133.854,355.41,133.854,357.871 C133.854,357.871,133.854,363.662,133.854,363.662 z"/>
        </defs>
        <use xlink:href="#27" style="fill:#000000;fill-opacity:1;fill-rule:nonzero;opacity:1;stroke:none;"/>
      </g>
    </defs>
    <use xlink:href="#26"/>
    <defs>
      <title>Text</title>
      <g id="28">
        <defs>
          <path id="29" d="M119.508,310.975 C119.508,310.975,128.375,310.975,128.375,310.975 C129.417,310.975,130.283,310.78,130.973,310.389 C132.015,309.81,132.535,308.833,132.535,307.459 C132.535,305.812,131.972,304.692,130.846,304.1 C130.234,303.781,129.41,303.621,128.375,303.621 C128.375,303.621,119.508,303.621,119.508,303.621 C119.508,303.621,119.508,301.649,119.508,301.649 C119.508,301.649,127.565,301.649,127.565,301.649 C129.329,301.649,130.686,301.886,131.637,302.362 C133.369,303.234,134.235,304.881,134.235,307.303 C134.235,309.725,133.369,311.369,131.637,312.235 C130.686,312.71,129.329,312.948,127.565,312.948 C127.565,312.948,119.508,312.948,119.508,312.948 z M119.508,298.641 C119.508,298.641,119.508,296.346,119.508,296.346 C119.508,296.346,131.129,289.1,131.129,289.1 C131.129,289.1,119.508,289.1,119.508,289.1 C119.508,289.1,119.508,287.254,119.508,287.254 C119.508,287.254,133.854,287.254,133.854,287.254 C133.854,287.254,133.854,289.432,133.854,289.432 C133.854,289.432,122.242,296.786,122.242,296.786 C122.242,296.786,133.854,296.786,133.854,296.786 C133.854,296.786,133.854,298.641,133.854,298.641 z M129.225,282.928 C130.039,282.883,130.699,282.69,131.207,282.352 C132.158,281.707,132.633,280.571,132.633,278.944 C132.633,278.215,132.529,277.551,132.321,276.952 C131.917,275.793,131.194,275.213,130.153,275.213 C129.371,275.213,128.815,275.457,128.483,275.946 C128.157,276.44,127.874,277.215,127.633,278.27 C127.633,278.27,127.194,280.213,127.194,280.213 C126.907,281.483,126.591,282.381,126.246,282.909 C125.647,283.82,124.752,284.276,123.561,284.276 C122.272,284.276,121.214,283.83,120.387,282.938 C119.56,282.046,119.147,280.783,119.147,279.149 C119.147,277.645,119.51,276.367,120.236,275.316 C120.961,274.264,122.122,273.739,123.717,273.739 C123.717,273.739,123.717,275.565,123.717,275.565 C122.949,275.663,122.36,275.871,121.949,276.19 C121.201,276.782,120.826,277.788,120.826,279.207 C120.826,280.353,121.067,281.177,121.549,281.678 C122.031,282.179,122.591,282.43,123.229,282.43 C123.932,282.43,124.446,282.137,124.772,281.551 C124.98,281.167,125.24,280.298,125.553,278.944 C125.553,278.944,126.012,276.932,126.012,276.932 C126.233,275.962,126.536,275.213,126.92,274.686 C127.591,273.774,128.564,273.319,129.84,273.319 C131.429,273.319,132.565,273.897,133.248,275.052 C133.932,276.208,134.274,277.551,134.274,279.08 C134.274,280.864,133.818,282.261,132.906,283.27 C132.001,284.279,130.774,284.774,129.225,284.754 z M119.508,260.418 C119.508,260.418,121.217,260.418,121.217,260.418 C121.217,260.418,121.217,265.252,121.217,265.252 C121.217,265.252,133.854,265.252,133.854,265.252 C133.854,265.252,133.854,267.225,133.854,267.225 C133.854,267.225,121.217,267.225,121.217,267.225 C121.217,267.225,121.217,272.059,121.217,272.059 C121.217,272.059,119.508,272.059,119.508,272.059 z M126.08,251.971 C126.08,251.06,125.898,250.339,125.533,249.808 C125.169,249.277,124.511,249.012,123.561,249.012 C122.539,249.012,121.842,249.383,121.471,250.125 C121.276,250.523,121.178,251.053,121.178,251.717 C121.178,251.717,121.178,256.463,121.178,256.463 C121.178,256.463,126.08,256.463,126.08,256.463 z M119.508,258.407 C119.508,258.407,119.508,251.766,119.508,251.766 C119.508,250.672,119.668,249.771,119.987,249.061 C120.598,247.713,121.728,247.039,123.375,247.039 C124.235,247.039,124.938,247.217,125.485,247.572 C126.031,247.926,126.471,248.423,126.803,249.061 C127.031,248.501,127.33,248.079,127.701,247.796 C128.072,247.513,128.675,247.355,129.508,247.323 C129.508,247.323,131.432,247.254,131.432,247.254 C131.979,247.235,132.386,247.189,132.653,247.118 C133.108,247,133.401,246.792,133.531,246.493 C133.531,246.493,133.854,246.493,133.854,246.493 C133.854,246.493,133.854,248.875,133.854,248.875 C133.73,248.941,133.571,248.993,133.375,249.032 C133.18,249.071,132.802,249.103,132.242,249.129 C132.242,249.129,129.85,249.246,129.85,249.246 C128.912,249.292,128.284,249.64,127.965,250.291 C127.789,250.663,127.701,251.245,127.701,252.039 C127.701,252.039,127.701,256.463,127.701,256.463 C127.701,256.463,133.854,256.463,133.854,256.463 C133.854,256.463,133.854,258.407,133.854,258.407 z M119.508,242.088 C119.508,242.088,128.375,242.088,128.375,242.088 C129.417,242.088,130.283,241.893,130.973,241.502 C132.015,240.923,132.535,239.946,132.535,238.573 C132.535,236.926,131.972,235.806,130.846,235.213 C130.234,234.894,129.41,234.735,128.375,234.735 C128.375,234.735,119.508,234.735,119.508,234.735 C119.508,234.735,119.508,232.762,119.508,232.762 C119.508,232.762,127.565,232.762,127.565,232.762 C129.329,232.762,130.686,233,131.637,233.475 C133.369,234.347,134.235,235.995,134.235,238.416 C134.235,240.838,133.369,242.482,131.637,243.348 C130.686,243.823,129.329,244.061,127.565,244.061 C127.565,244.061,119.508,244.061,119.508,244.061 z M119.117,223.709 C119.117,221.893,119.596,220.483,120.553,219.481 C121.51,218.478,122.597,217.922,123.815,217.811 C123.815,217.811,123.815,219.705,123.815,219.705 C122.89,219.92,122.158,220.348,121.617,220.99 C121.077,221.631,120.807,222.531,120.807,223.69 C120.807,225.103,121.303,226.244,122.296,227.113 C123.289,227.982,124.811,228.416,126.862,228.416 C128.541,228.416,129.904,228.024,130.948,227.24 C131.993,226.455,132.516,225.285,132.516,223.729 C132.516,222.297,131.966,221.206,130.865,220.457 C130.286,220.06,129.524,219.764,128.58,219.569 C128.58,219.569,128.58,217.674,128.58,217.674 C130.091,217.843,131.357,218.403,132.379,219.354 C133.61,220.493,134.225,222.03,134.225,223.963 C134.225,225.63,133.72,227.03,132.711,228.163 C131.376,229.653,129.316,230.399,126.529,230.399 C124.414,230.399,122.679,229.839,121.324,228.719 C119.853,227.508,119.117,225.838,119.117,223.709 z M119.508,204.871 C119.508,204.871,121.217,204.871,121.217,204.871 C121.217,204.871,121.217,209.705,121.217,209.705 C121.217,209.705,133.854,209.705,133.854,209.705 C133.854,209.705,133.854,211.678,133.854,211.678 C133.854,211.678,121.217,211.678,121.217,211.678 C121.217,211.678,121.217,216.512,121.217,216.512 C121.217,216.512,119.508,216.512,119.508,216.512 z M119.508,200.985 C119.508,200.985,128.375,200.985,128.375,200.985 C129.417,200.985,130.283,200.789,130.973,200.399 C132.015,199.819,132.535,198.843,132.535,197.469 C132.535,195.822,131.972,194.702,130.846,194.11 C130.234,193.791,129.41,193.631,128.375,193.631 C128.375,193.631,119.508,193.631,119.508,193.631 C119.508,193.631,119.508,191.659,119.508,191.659 C119.508,191.659,127.565,191.659,127.565,191.659 C129.329,191.659,130.686,191.896,131.637,192.371 C133.369,193.244,134.235,194.891,134.235,197.313 C134.235,199.735,133.369,201.379,131.637,202.245 C130.686,202.72,129.329,202.957,127.565,202.957 C127.565,202.957,119.508,202.957,119.508,202.957 z M126.08,181.981 C126.08,181.069,125.898,180.348,125.533,179.818 C125.169,179.287,124.511,179.022,123.561,179.022 C122.539,179.022,121.842,179.393,121.471,180.135 C121.276,180.532,121.178,181.063,121.178,181.727 C121.178,181.727,121.178,186.473,121.178,186.473 C121.178,186.473,126.08,186.473,126.08,186.473 z M119.508,188.416 C119.508,188.416,119.508,181.776,119.508,181.776 C119.508,180.682,119.668,179.78,119.987,179.071 C120.598,177.723,121.728,177.049,123.375,177.049 C124.235,177.049,124.938,177.227,125.485,177.581 C126.031,177.936,126.471,178.433,126.803,179.071 C127.031,178.511,127.33,178.089,127.701,177.806 C128.072,177.523,128.675,177.365,129.508,177.332 C129.508,177.332,131.432,177.264,131.432,177.264 C131.979,177.245,132.386,177.199,132.653,177.127 C133.108,177.01,133.401,176.802,133.531,176.502 C133.531,176.502,133.854,176.502,133.854,176.502 C133.854,176.502,133.854,178.885,133.854,178.885 C133.73,178.95,133.57,179.002,133.375,179.041 C133.18,179.08,132.802,179.113,132.242,179.139 C132.242,179.139,129.85,179.256,129.85,179.256 C128.912,179.302,128.284,179.65,127.965,180.301 C127.789,180.672,127.701,181.255,127.701,182.049 C127.701,182.049,127.701,186.473,127.701,186.473 C127.701,186.473,133.854,186.473,133.854,186.473 C133.854,186.473,133.854,188.416,133.854,188.416 z M119.508,174.022 C119.508,174.022,119.508,163.563,119.508,163.563 C119.508,163.563,121.266,163.563,121.266,163.563 C121.266,163.563,121.266,172.127,121.266,172.127 C121.266,172.127,125.621,172.127,125.621,172.127 C125.621,172.127,125.621,164.207,125.621,164.207 C125.621,164.207,127.281,164.207,127.281,164.207 C127.281,164.207,127.281,172.127,127.281,172.127 C127.281,172.127,132.145,172.127,132.145,172.127 C132.145,172.127,132.145,163.416,132.145,163.416 C132.145,163.416,133.854,163.416,133.854,163.416 C133.854,163.416,133.854,174.022,133.854,174.022 z M132.194,155.36 C132.194,154.702,132.125,154.162,131.988,153.739 C131.735,152.983,131.246,152.365,130.524,151.883 C129.944,151.499,129.202,151.222,128.297,151.053 C127.757,150.955,127.255,150.907,126.793,150.907 C125.016,150.907,123.636,151.26,122.653,151.966 C121.669,152.673,121.178,153.81,121.178,155.379 C121.178,155.379,121.178,158.827,121.178,158.827 C121.178,158.827,132.194,158.827,132.194,158.827 z M119.508,160.78 C119.508,160.78,119.508,154.969,119.508,154.969 C119.508,152.996,120.208,151.467,121.608,150.379 C122.871,149.409,124.488,148.924,126.461,148.924 C127.985,148.924,129.362,149.211,130.592,149.784 C132.766,150.793,133.854,152.528,133.854,154.989 C133.854,154.989,133.854,160.78,133.854,160.78 z"/>
        </defs>
        <use xlink:href="#29" style="fill:#000000;fill-opacity:1;fill-rule:nonzero;opacity:1;stroke:none;"/>
      </g>
    </defs>
    <use xlink:href="#28"/>
  </g>
</svg>
